<?xml version="1.0" encoding="UTF-8" standalone="no"?>
<!-- Created with Inkscape (http://www.inkscape.org/) -->

<svg
   xmlns:dc="http://purl.org/dc/elements/1.1/"
   xmlns:cc="http://creativecommons.org/ns#"
   xmlns:rdf="http://www.w3.org/1999/02/22-rdf-syntax-ns#"
   xmlns:svg="http://www.w3.org/2000/svg"
   xmlns="http://www.w3.org/2000/svg"
   xmlns:sodipodi="http://sodipodi.sourceforge.net/DTD/sodipodi-0.dtd"
   xmlns:inkscape="http://www.inkscape.org/namespaces/inkscape"
   width="31.999994"
   height="36.121548"
   viewBox="0 0 8.466665 9.5571598"
   version="1.1"
   id="svg4330"
   inkscape:version="0.92.4 (5da689c313, 2019-01-14)"
   sodipodi:docname="astronaut__apple.svg">
  <defs
     id="defs4324" />
  <sodipodi:namedview
     id="base"
     pagecolor="#ffffff"
     bordercolor="#666666"
     borderopacity="1.0"
     inkscape:pageopacity="0.0"
     inkscape:pageshadow="2"
     inkscape:zoom="7.9195959"
     inkscape:cx="14.601114"
     inkscape:cy="5.1617352"
     inkscape:document-units="px"
     inkscape:current-layer="layer1"
     showgrid="false"
     units="px"
     fit-margin-top="0"
     fit-margin-left="0"
     fit-margin-right="0"
     fit-margin-bottom="0"
     inkscape:window-width="1680"
     inkscape:window-height="987"
     inkscape:window-x="-8"
     inkscape:window-y="-8"
     inkscape:window-maximized="1" />
  <metadata
     id="metadata4327">
    <rdf:RDF>
      <cc:Work
         rdf:about="">
        <dc:format>image/svg+xml</dc:format>
        <dc:type
           rdf:resource="http://purl.org/dc/dcmitype/StillImage" />
        <dc:title></dc:title>
      </cc:Work>
    </rdf:RDF>
  </metadata>
  <g
     inkscape:label="Layer 1"
     inkscape:groupmode="layer"
     id="layer1"
     transform="translate(193.97738,13.939294)">
    <g
       transform="matrix(0.01866629,0,0,0.01866629,-194.52263,-13.939293)"
       id="g4842"
       style="display:inline;opacity:1;stroke-width:14.17438698">
      <g
         id="g4840"
         style="stroke-width:14.17438698">
        <path
           id="path4838"
           d="m 373.166,118.1 c -31.502,-5.081 -62.938,1.645 -89.566,18.975 7.943,-17.452 20.373,-33.236 37.183,-47.151 20.025,-16.576 39.025,-24.13 39.18,-24.191 7.864,-3.04 11.774,-11.88 8.734,-19.744 -3.039,-7.863 -11.876,-11.775 -19.744,-8.734 -2.406,0.93 -40.224,15.967 -70.092,51.072 -1.12,-5.526 -2.683,-11.088 -4.799,-16.602 C 256.29,25.429 207.467,2.373 205.398,1.414 c -3.746,-1.735 -8.035,-1.879 -11.889,-0.401 -3.853,1.48 -6.944,4.457 -8.566,8.252 -0.897,2.099 -21.751,51.901 -3.979,98.197 1.602,4.172 3.458,8.152 5.507,11.947 -15.439,-3.414 -31.528,-3.909 -47.635,-1.31 -70.632,11.397 -119.106,79.57 -108.056,151.974 7.865,51.537 19.363,95.802 34.179,131.562 16.803,40.562 38.026,70.384 63.079,88.641 19.837,14.455 41.934,21.727 65.914,21.725 6.633,0 13.414,-0.557 20.327,-1.672 15.953,-2.573 29.928,-8.421 41.722,-17.433 11.794,9.012 25.77,14.861 41.722,17.433 31.897,5.146 60.915,-1.6 86.24,-20.053 25.053,-18.256 46.277,-48.078 63.079,-88.641 14.816,-35.762 26.314,-80.026 34.179,-131.562 C 492.271,197.669 443.797,129.496 373.166,118.1 Z M 207.822,38.202 c 12.638,8.744 29.767,23.703 37.737,44.464 7.92,20.631 5.178,43.308 1.646,58.319 -12.637,-8.743 -29.766,-23.702 -37.736,-44.464 -7.921,-20.63 -5.179,-43.306 -1.647,-58.319 z M 451.04,265.467 c -15.518,101.689 -44.929,170.894 -85.057,200.133 -18.763,13.672 -39.501,18.445 -63.399,14.587 -14.646,-2.362 -26.215,-8.329 -35.371,-18.241 -2.89,-3.127 -6.955,-4.906 -11.214,-4.906 -4.259,0 -8.324,1.779 -11.214,4.906 -9.155,9.912 -20.725,15.878 -35.371,18.241 -23.898,3.853 -44.635,-0.915 -63.399,-14.587 -40.128,-29.239 -69.539,-98.444 -85.057,-200.133 -8.531,-55.902 28.586,-108.489 82.738,-117.225 5.196,-0.839 10.393,-1.253 15.551,-1.253 21.081,0 41.527,6.926 58.814,20.135 22.336,17.067 53.537,17.067 75.874,0 21.518,-16.441 47.93,-23.149 74.365,-18.882 h 10e-4 c 54.154,8.737 91.27,61.324 82.739,117.225 z"
           inkscape:connector-curvature="0"
           style="stroke-width:14.17438698" />
      </g>
    </g>
  </g>
</svg>
