<?xml version="1.0" encoding="UTF-8" standalone="no"?>
<!-- Created with Inkscape (http://www.inkscape.org/) -->

<svg
   xmlns:dc="http://purl.org/dc/elements/1.1/"
   xmlns:cc="http://creativecommons.org/ns#"
   xmlns:rdf="http://www.w3.org/1999/02/22-rdf-syntax-ns#"
   xmlns:svg="http://www.w3.org/2000/svg"
   xmlns="http://www.w3.org/2000/svg"
   xmlns:sodipodi="http://sodipodi.sourceforge.net/DTD/sodipodi-0.dtd"
   xmlns:inkscape="http://www.inkscape.org/namespaces/inkscape"
   width="39.999989"
   height="39.99995"
   viewBox="0 0 10.58333 10.583321"
   version="1.1"
   id="svg3562"
   inkscape:version="0.92.4 (5da689c313, 2019-01-14)"
   sodipodi:docname="awesome-program__mars.svg">
  <defs
     id="defs3556" />
  <sodipodi:namedview
     id="base"
     pagecolor="#ffffff"
     bordercolor="#666666"
     borderopacity="1.0"
     inkscape:pageopacity="0.0"
     inkscape:pageshadow="2"
     inkscape:zoom="7.9195959"
     inkscape:cx="18.019624"
     inkscape:cy="23.748351"
     inkscape:document-units="px"
     inkscape:current-layer="svg3562"
     showgrid="false"
     units="px"
     fit-margin-top="0"
     fit-margin-left="0"
     fit-margin-right="0"
     fit-margin-bottom="0"
     inkscape:window-width="1680"
     inkscape:window-height="987"
     inkscape:window-x="-8"
     inkscape:window-y="-8"
     inkscape:window-maximized="1" />
  <metadata
     id="metadata3559">
    <rdf:RDF>
      <cc:Work
         rdf:about="">
        <dc:format>image/svg+xml</dc:format>
        <dc:type
           rdf:resource="http://purl.org/dc/dcmitype/StillImage" />
        <dc:title></dc:title>
      </cc:Work>
    </rdf:RDF>
  </metadata>
  <g
     inkscape:label="Layer 1"
     inkscape:groupmode="layer"
     id="layer1"
     transform="translate(98.273803,-120.10715)">
    <path
       style="display:inline;opacity:1"
       inkscape:connector-curvature="0"
       d="m -87.696188,120.49131 c -0.004,-0.0381 -0.0132,-0.0746 -0.0271,-0.10895 -5.02e-4,-5.1e-4 -5.02e-4,-0.003 -5.02e-4,-0.003 0,-2.4e-4 -2.41e-4,-5.1e-4 -5.03e-4,-5.1e-4 -0.0154,-0.0362 -0.0362,-0.069 -0.0597,-0.0995 -0.005,-0.007 -0.0116,-0.0143 -0.0176,-0.0211 -0.02519,-0.0284 -0.0524,-0.0547 -0.08429,-0.0761 -5.03e-4,-5.1e-4 -0.003,-5.3e-4 -0.003,-0.002 -0.0307,-0.0203 -0.0645,-0.0356 -0.10012,-0.0476 -0.009,-0.003 -0.0174,-0.005 -0.0265,-0.008 -0.0372,-0.0101 -0.0756,-0.0174 -0.11596,-0.0174 h -3.08679 c -0.24342,0 -0.44097,0.19756 -0.44097,0.44098 0,0.24341 0.19755,0.44096 0.44097,0.44096 h 2.02206 l -2.63194,2.63195 c -0.70183,-0.56136 -1.56591,-0.86808 -2.47692,-0.86808 -2.18829,0 -3.96875,1.78047 -3.96875,3.96877 0,2.18828 1.78046,3.96874 3.96875,3.96874 2.18829,0 3.96876,-1.78046 3.96876,-3.96874 0,-0.91059 -0.30652,-1.77445 -0.86828,-2.47693 l 2.63217,-2.63215 v 2.02226 c 0,0.24342 0.19754,0.44097 0.44097,0.44097 0.24341,0 0.44096,-0.19755 0.44096,-0.44097 v -3.08681 c 0,-0.009 -0.003,-0.0181 -0.003,-0.0271 -5.03e-4,-0.0101 -0.002,-0.0198 -0.003,-0.0297 z m -6.60887,9.31726 c -1.70221,0 -3.08681,-1.3846 -3.08681,-3.0868 0,-1.7022 1.3846,-3.0868 3.08681,-3.0868 0.82413,0 1.60003,0.32082 2.18344,0.90218 0.58254,0.58459 0.90336,1.36049 0.90336,2.18462 0,1.7022 -1.38461,3.0868 -3.0868,3.0868 z m 0,0"
       id="path4022" />
  </g>
</svg>
