<?xml version="1.0" encoding="UTF-8" standalone="no"?>
<!-- Created with Inkscape (http://www.inkscape.org/) -->

<svg
   xmlns:dc="http://purl.org/dc/elements/1.1/"
   xmlns:cc="http://creativecommons.org/ns#"
   xmlns:rdf="http://www.w3.org/1999/02/22-rdf-syntax-ns#"
   xmlns:svg="http://www.w3.org/2000/svg"
   xmlns="http://www.w3.org/2000/svg"
   xmlns:sodipodi="http://sodipodi.sourceforge.net/DTD/sodipodi-0.dtd"
   xmlns:inkscape="http://www.inkscape.org/namespaces/inkscape"
   width="40"
   height="39.999996"
   viewBox="0 0 10.583333 10.583333"
   version="1.1"
   id="svg4195"
   inkscape:version="0.92.4 (5da689c313, 2019-01-14)"
   sodipodi:docname="awesome-program__luna.svg">
  <defs
     id="defs4189" />
  <sodipodi:namedview
     id="base"
     pagecolor="#ffffff"
     bordercolor="#666666"
     borderopacity="1.0"
     inkscape:pageopacity="0.0"
     inkscape:pageshadow="2"
     inkscape:zoom="7.9195959"
     inkscape:cx="17.153162"
     inkscape:cy="24.465717"
     inkscape:document-units="px"
     inkscape:current-layer="layer1"
     showgrid="false"
     units="px"
     fit-margin-top="0"
     fit-margin-left="0"
     fit-margin-right="0"
     fit-margin-bottom="0"
     inkscape:window-width="1680"
     inkscape:window-height="987"
     inkscape:window-x="-8"
     inkscape:window-y="-8"
     inkscape:window-maximized="1" />
  <metadata
     id="metadata4192">
    <rdf:RDF>
      <cc:Work
         rdf:about="">
        <dc:format>image/svg+xml</dc:format>
        <dc:type
           rdf:resource="http://purl.org/dc/dcmitype/StillImage" />
        <dc:title></dc:title>
      </cc:Work>
    </rdf:RDF>
  </metadata>
  <g
     inkscape:label="Layer 1"
     inkscape:groupmode="layer"
     id="layer1"
     transform="translate(195.79167,-104.98809)">
    <g
       style="display:inline;opacity:1;fill-opacity:1;stroke-width:7.81130028"
       transform="matrix(0.03381272,0,0,0.0339311,-195.79167,104.96955)"
       id="g4083">
      <g
         style="fill-opacity:1;stroke-width:7.81130028"
         id="g4048">
        <g
           style="fill-opacity:1;stroke-width:7.81130028"
           id="g4046">
          <path
             style="fill-opacity:1;stroke-width:7.81130028"
             inkscape:connector-curvature="0"
             d="m 305.6,178.053 c -3.2,-0.8 -6.4,0 -9.2,2 -10.4,8.8 -22.4,16 -35.6,20.8 -12.4,4.8 -26,7.2 -40.4,7.2 -32.4,0 -62,-13.2 -83.2,-34.4 -21.2,-21.2 -34.4,-50.8 -34.4,-83.2 0,-13.6 2.4,-26.8 6.4,-38.8 4.4,-12.8 10.8,-24.4 19.2,-34.4 3.6,-4.4 2.8,-10.8 -1.6,-14.4 -2.8,-2 -6,-2.8 -9.2,-2 -34,9.2 -63.6,29.6 -84.8,56.8 -20.4,26.8 -32.8,60 -32.8,96.4 0,43.6 17.6,83.2 46.4,112 28.8,28.8 68.4,46.4 112,46.4 36.8,0 70.8,-12.8 98,-34 27.6,-21.6 47.6,-52.4 56,-87.6 2,-6 -1.2,-11.6 -6.8,-12.8 z m -61.2,83.6 c -23.2,18.4 -52.8,29.6 -85.2,29.6 -38,0 -72.4,-15.6 -97.2,-40.4 -24.8,-24.8 -40.4,-59.2 -40.4,-97.2 0,-31.6 10.4,-60.4 28.4,-83.6 12.4,-16 28,-29.2 46,-38.4 -2,4.4 -4,8.8 -5.6,13.6 -5.2,14.4 -7.6,29.6 -7.6,45.6 0,38 15.6,72.8 40.4,97.6 24.8,24.8 59.6,40.4 97.6,40.4 16.8,0 32.8,-2.8 47.6,-8.4 5.2,-2 10.4,-4 15.2,-6.4 -9.6,18.4 -22.8,34.8 -39.2,47.6 z"
             id="path4044" />
        </g>
      </g>
      <g
         style="fill-opacity:1;stroke-width:7.81130028"
         id="g4050" />
      <g
         style="fill-opacity:1;stroke-width:7.81130028"
         id="g4052" />
      <g
         style="fill-opacity:1;stroke-width:7.81130028"
         id="g4055" />
      <g
         style="fill-opacity:1;stroke-width:7.81130028"
         id="g4057" />
      <g
         style="fill-opacity:1;stroke-width:7.81130028"
         id="g4059" />
      <g
         style="fill-opacity:1;stroke-width:7.81130028"
         id="g4061" />
      <g
         style="fill-opacity:1;stroke-width:7.81130028"
         id="g4063" />
      <g
         style="fill-opacity:1;stroke-width:7.81130028"
         id="g4065" />
      <g
         style="fill-opacity:1;stroke-width:7.81130028"
         id="g4067" />
      <g
         style="fill-opacity:1;stroke-width:7.81130028"
         id="g4069" />
      <g
         style="fill-opacity:1;stroke-width:7.81130028"
         id="g4073" />
      <g
         style="fill-opacity:1;stroke-width:7.81130028"
         id="g4075" />
      <g
         style="fill-opacity:1;stroke-width:7.81130028"
         id="g4077" />
      <g
         style="fill-opacity:1;stroke-width:7.81130028"
         id="g4079" />
      <g
         style="fill-opacity:1;stroke-width:7.81130028"
         id="g4081" />
    </g>
  </g>
</svg>
