<?xml version="1.0" encoding="UTF-8" standalone="no"?>
<!-- Created with Inkscape (http://www.inkscape.org/) -->

<svg
   xmlns:dc="http://purl.org/dc/elements/1.1/"
   xmlns:cc="http://creativecommons.org/ns#"
   xmlns:rdf="http://www.w3.org/1999/02/22-rdf-syntax-ns#"
   xmlns:svg="http://www.w3.org/2000/svg"
   xmlns="http://www.w3.org/2000/svg"
   xmlns:sodipodi="http://sodipodi.sourceforge.net/DTD/sodipodi-0.dtd"
   xmlns:inkscape="http://www.inkscape.org/namespaces/inkscape"
   width="32.000076"
   height="32.000576"
   viewBox="0 0 8.4666867 8.4668193"
   version="1.1"
   id="svg6223"
   inkscape:version="0.92.4 (5da689c313, 2019-01-14)"
   sodipodi:docname="footer__instagram.svg">
  <defs
     id="defs6217" />
  <sodipodi:namedview
     id="base"
     pagecolor="#ffffff"
     bordercolor="#666666"
     borderopacity="1.0"
     inkscape:pageopacity="0.0"
     inkscape:pageshadow="2"
     inkscape:zoom="5.6"
     inkscape:cx="42.429832"
     inkscape:cy="0.29788264"
     inkscape:document-units="px"
     inkscape:current-layer="layer1"
     showgrid="false"
     units="px"
     fit-margin-top="0"
     fit-margin-left="0"
     fit-margin-right="0"
     fit-margin-bottom="0"
     inkscape:window-width="1680"
     inkscape:window-height="987"
     inkscape:window-x="-8"
     inkscape:window-y="-8"
     inkscape:window-maximized="1" />
  <metadata
     id="metadata6220">
    <rdf:RDF>
      <cc:Work
         rdf:about="">
        <dc:format>image/svg+xml</dc:format>
        <dc:type
           rdf:resource="http://purl.org/dc/dcmitype/StillImage" />
        <dc:title></dc:title>
      </cc:Work>
    </rdf:RDF>
  </metadata>
  <g
     inkscape:label="Layer 1"
     inkscape:groupmode="layer"
     id="layer1"
     transform="translate(165.2512,12.638171)">
    <g
       id="g6786">
      <path
         style="stroke-width:5.64444447"
         inkscape:connector-curvature="0"
         d="m -161.01637,-10.57887 c -1.20051,0 -2.17241,0.97296 -2.17241,2.1724 0,1.20051 0.97296,2.17241 2.17241,2.17241 1.2005,0 2.1724,-0.97296 2.1724,-2.17241 0,-1.2005 -0.97296,-2.1724 -2.1724,-2.1724 z m 0,3.58246 c -0.77929,0 -1.41006,-0.63112 -1.41006,-1.41006 0,-0.77893 0.63112,-1.41005 1.41006,-1.41005 0.77893,0 1.41005,0.63112 1.41005,1.41005 3.5e-4,0.77894 -0.63077,1.41006 -1.41005,1.41006 z"
         id="path6293" />
      <path
         style="stroke-width:5.64444447"
         inkscape:connector-curvature="0"
         d="m -159.27224,-12.61158 c -0.77893,-0.0363 -2.70828,-0.0346 -3.48792,0 -0.68509,0.0321 -1.2894,0.19756 -1.77658,0.68474 -0.81422,0.81421 -0.71015,1.91135 -0.71015,3.52037 0,1.64677 -0.0917,2.71851 0.71015,3.52037 0.81738,0.81704 1.9304,0.71015 3.52037,0.71015 1.63124,0 2.19427,0.001 2.77107,-0.22225 0.78422,-0.30445 1.37618,-1.00542 1.43404,-2.26449 0.0367,-0.77928 0.0346,-2.70827 0,-3.48791 -0.0699,-1.48625 -0.86748,-2.3876 -2.46098,-2.46098 z m 1.23296,7.18679 c -0.53375,0.53375 -1.27424,0.48613 -2.98733,0.48613 -1.76388,0 -2.4712,0.0261 -2.98732,-0.49142 -0.59443,-0.59161 -0.48683,-1.54164 -0.48683,-2.98203 0,-1.9491 -0.20003,-3.3528 1.75613,-3.45299 0.44944,-0.0159 0.58173,-0.0212 1.71309,-0.0212 l 0.0159,0.0106 c 1.87995,0 3.35492,-0.19685 3.44347,1.75895 0.0201,0.44626 0.0247,0.58032 0.0247,1.70991 -3.5e-4,1.74343 0.0328,2.45498 -0.49177,2.98203 z"
         id="path6295" />
      <circle
         style="stroke-width:5.64444447"
         cx="-158.75787"
         cy="-10.66461"
         r="0.50764734"
         id="circle6297" />
    </g>
  </g>
</svg>
