<?xml version="1.0" encoding="UTF-8" standalone="no"?>
<!-- Created with Inkscape (http://www.inkscape.org/) -->

<svg
   xmlns:dc="http://purl.org/dc/elements/1.1/"
   xmlns:cc="http://creativecommons.org/ns#"
   xmlns:rdf="http://www.w3.org/1999/02/22-rdf-syntax-ns#"
   xmlns:svg="http://www.w3.org/2000/svg"
   xmlns="http://www.w3.org/2000/svg"
   xmlns:sodipodi="http://sodipodi.sourceforge.net/DTD/sodipodi-0.dtd"
   xmlns:inkscape="http://www.inkscape.org/namespaces/inkscape"
   width="18.430595"
   height="14.399999"
   viewBox="0 0 4.8764283 3.8099998"
   version="1.1"
   id="svg5558"
   inkscape:version="0.92.4 (5da689c313, 2019-01-14)"
   sodipodi:docname="live-stream__broadcast.svg">
  <defs
     id="defs5552" />
  <sodipodi:namedview
     id="base"
     pagecolor="#ffffff"
     bordercolor="#666666"
     borderopacity="1.0"
     inkscape:pageopacity="0.0"
     inkscape:pageshadow="2"
     inkscape:zoom="15.839192"
     inkscape:cx="-2.1783569"
     inkscape:cy="11.373901"
     inkscape:document-units="px"
     inkscape:current-layer="g3271"
     showgrid="false"
     units="px"
     fit-margin-top="0"
     fit-margin-left="0"
     fit-margin-right="0"
     fit-margin-bottom="0"
     inkscape:window-width="1680"
     inkscape:window-height="987"
     inkscape:window-x="-8"
     inkscape:window-y="-8"
     inkscape:window-maximized="1" />
  <metadata
     id="metadata5555">
    <rdf:RDF>
      <cc:Work
         rdf:about="">
        <dc:format>image/svg+xml</dc:format>
        <dc:type
           rdf:resource="http://purl.org/dc/dcmitype/StillImage" />
        <dc:title />
      </cc:Work>
    </rdf:RDF>
  </metadata>
  <g
     inkscape:label="Layer 1"
     inkscape:groupmode="layer"
     id="layer1"
     transform="translate(157.40845,-164.31524)">
    <g
       transform="matrix(0.28221869,0,0,0.28221869,-158.32566,162.83362)"
       id="g3273"
       style="display:inline;opacity:1;fill-opacity:1;stroke-width:20.00024796">
      <g
         style="fill-opacity:1;stroke-width:20.00024796"
         id="g3271">
        <path
           style="fill-opacity:1;stroke-width:20.00024796"
           inkscape:connector-curvature="0"
           d="m 17.3717,17.5904 c -0.2262,0.3469 -0.1283,0.8116 0.2187,1.0378 0.3469,0.2263 0.8116,0.1284 1.0379,-0.2186 1.2021,-1.8437 1.9006,-4.0462 1.9006,-6.4096 0,-2.36341 -0.6985,-4.56594 -1.9006,-6.40964 -0.2263,-0.34697 -0.691,-0.44485 -1.0379,-0.21862 -0.347,0.22624 -0.4449,0.69091 -0.2187,1.03789 1.0481,1.60741 1.6572,3.52661 1.6572,5.59037 0,2.0637 -0.6091,3.9829 -1.6572,5.5904 z"
           id="path3261" />
        <path
           style="fill-opacity:1;stroke-width:20.00024796"
           inkscape:connector-curvature="0"
           d="M 6.18856,5.37174 C 6.53554,5.59797 6.63342,6.06265 6.40718,6.40963 5.35913,8.01704 4.75,9.93624 4.75,12 c 0,2.0637 0.60912,3.9829 1.65718,5.5904 0.22624,0.3469 0.12836,0.8116 -0.21862,1.0378 C 5.84159,18.8545 5.37691,18.7566 5.15068,18.4096 3.94856,16.5659 3.25,14.3634 3.25,12 3.25,9.63659 3.94856,7.43406 5.15068,5.59036 5.37691,5.24339 5.84159,5.14551 6.18856,5.37174 Z"
           id="path3263" />
        <path
           style="fill-opacity:1;stroke-width:20.00024796"
           inkscape:connector-curvature="0"
           d="M 8.37318,8.39077 C 8.70964,8.63236 8.78656,9.10096 8.54497,9.43743 8.0445,10.1344 7.75,10.9882 7.75,11.913 c 0,0.9248 0.2945,1.7786 0.79497,2.4756 0.24159,0.3365 0.16467,0.8051 -0.17179,1.0467 C 8.03671,15.6768 7.56811,15.5999 7.32652,15.2635 6.64906,14.3199 6.25,13.162 6.25,11.913 6.25,10.6641 6.64906,9.50608 7.32652,8.56256 7.56811,8.2261 8.03671,8.14918 8.37318,8.39077 Z"
           id="path3265" />
        <path
           style="fill-opacity:1;stroke-width:20.00024796"
           inkscape:connector-curvature="0"
           d="m 12,9.25 c -1.5188,0 -2.75,1.2312 -2.75,2.75 0,1.5188 1.2312,2.75 2.75,2.75 1.5188,0 2.75,-1.2312 2.75,-2.75 0,-1.5188 -1.2312,-2.75 -2.75,-2.75 z"
           id="path3267" />
        <path
           style="fill-opacity:1;stroke-width:20.00024796"
           inkscape:connector-curvature="0"
           d="m 15.3908,14.3886 c -0.2416,0.3365 -0.1647,0.8051 0.1718,1.0467 0.3364,0.2416 0.805,0.1646 1.0466,-0.1718 0.6775,-0.9435 1.0766,-2.1015 1.0766,-3.3505 0,-1.2489 -0.3991,-2.4069 -1.0766,-3.35042 C 16.3676,8.22611 15.899,8.1492 15.5626,8.39079 c -0.3365,0.24158 -0.4134,0.71019 -0.1718,1.04665 0.5004,0.69706 0.795,1.55076 0.795,2.47556 0,0.9248 -0.2946,1.7786 -0.795,2.4756 z"
           id="path3269" />
      </g>
    </g>
  </g>
</svg>
