<?xml version="1.0" encoding="UTF-8" standalone="no"?>
<!-- Created with Inkscape (http://www.inkscape.org/) -->

<svg
   xmlns:dc="http://purl.org/dc/elements/1.1/"
   xmlns:cc="http://creativecommons.org/ns#"
   xmlns:rdf="http://www.w3.org/1999/02/22-rdf-syntax-ns#"
   xmlns:svg="http://www.w3.org/2000/svg"
   xmlns="http://www.w3.org/2000/svg"
   xmlns:sodipodi="http://sodipodi.sourceforge.net/DTD/sodipodi-0.dtd"
   xmlns:inkscape="http://www.inkscape.org/namespaces/inkscape"
   width="19.394007"
   height="12.361026"
   viewBox="0 0 5.1313308 3.2705215"
   version="1.1"
   id="svg6157"
   inkscape:version="0.92.4 (5da689c313, 2019-01-14)"
   sodipodi:docname="live-stream__eye.svg">
  <defs
     id="defs6151" />
  <sodipodi:namedview
     id="base"
     pagecolor="#ffffff"
     bordercolor="#666666"
     borderopacity="1.0"
     inkscape:pageopacity="0.0"
     inkscape:pageshadow="2"
     inkscape:zoom="11.2"
     inkscape:cx="14.870794"
     inkscape:cy="2.2453606"
     inkscape:document-units="px"
     inkscape:current-layer="layer1"
     showgrid="false"
     units="px"
     fit-margin-top="0"
     fit-margin-left="0"
     fit-margin-right="0"
     fit-margin-bottom="0"
     inkscape:window-width="1680"
     inkscape:window-height="987"
     inkscape:window-x="-8"
     inkscape:window-y="-8"
     inkscape:window-maximized="1" />
  <metadata
     id="metadata6154">
    <rdf:RDF>
      <cc:Work
         rdf:about="">
        <dc:format>image/svg+xml</dc:format>
        <dc:type
           rdf:resource="http://purl.org/dc/dcmitype/StillImage" />
        <dc:title></dc:title>
      </cc:Work>
    </rdf:RDF>
  </metadata>
  <g
     inkscape:label="Layer 1"
     inkscape:groupmode="layer"
     id="layer1"
     transform="translate(88.744237,-8.1028345)">
    <g
       style="display:inline;opacity:1;fill-opacity:1;stroke-width:26.3998127"
       transform="matrix(0.01002216,0,0,0.01002216,-88.744237,7.1724273)"
       id="g3325">
      <g
         style="fill-opacity:1;stroke-width:26.3998127"
         id="g3287">
        <g
           style="fill-opacity:1;stroke-width:26.3998127"
           id="g3285">
          <path
             style="fill-opacity:1;stroke-width:26.3998127"
             inkscape:connector-curvature="0"
             d="M 508.745,246.041 C 504.171,239.784 395.188,92.835 255.997,92.835 c -139.191,0 -248.179,146.949 -252.748,153.2 -4.332,5.936 -4.332,13.987 0,19.923 4.569,6.257 113.557,153.206 252.748,153.206 139.191,0 248.174,-146.95 252.748,-153.201 4.338,-5.935 4.338,-13.992 0,-19.922 z M 255.997,385.406 c -102.529,0 -191.33,-97.533 -217.617,-129.418 26.253,-31.913 114.868,-129.395 217.617,-129.395 102.524,0 191.319,97.516 217.617,129.418 -26.253,31.912 -114.868,129.395 -217.617,129.395 z"
             id="path3283" />
        </g>
      </g>
      <g
         style="fill-opacity:1;stroke-width:26.3998127"
         id="g3293">
        <g
           style="fill-opacity:1;stroke-width:26.3998127"
           id="g3291">
          <path
             style="fill-opacity:1;stroke-width:26.3998127"
             inkscape:connector-curvature="0"
             d="m 255.997,154.725 c -55.842,0 -101.275,45.433 -101.275,101.275 0,55.842 45.433,101.275 101.275,101.275 55.842,0 101.275,-45.433 101.275,-101.275 0,-55.842 -45.433,-101.275 -101.275,-101.275 z m 0,168.791 c -37.23,0 -67.516,-30.287 -67.516,-67.516 0,-37.229 30.287,-67.516 67.516,-67.516 37.229,0 67.516,30.287 67.516,67.516 0,37.229 -30.286,67.516 -67.516,67.516 z"
             id="path3289" />
        </g>
      </g>
    </g>
  </g>
</svg>
