<?xml version="1.0" encoding="UTF-8" standalone="no"?>
<!-- Created with Inkscape (http://www.inkscape.org/) -->

<svg
   xmlns:dc="http://purl.org/dc/elements/1.1/"
   xmlns:cc="http://creativecommons.org/ns#"
   xmlns:rdf="http://www.w3.org/1999/02/22-rdf-syntax-ns#"
   xmlns:svg="http://www.w3.org/2000/svg"
   xmlns="http://www.w3.org/2000/svg"
   xmlns:sodipodi="http://sodipodi.sourceforge.net/DTD/sodipodi-0.dtd"
   xmlns:inkscape="http://www.inkscape.org/namespaces/inkscape"
   width="69.084564"
   height="57.694687"
   viewBox="0 0 18.278624 15.265053"
   version="1.1"
   id="svg3553"
   inkscape:version="0.92.4 (5da689c313, 2019-01-14)"
   sodipodi:docname="testimonials__quote.svg">
  <defs
     id="defs3547" />
  <sodipodi:namedview
     id="base"
     pagecolor="#ffffff"
     bordercolor="#666666"
     borderopacity="1.0"
     inkscape:pageopacity="0.0"
     inkscape:pageshadow="2"
     inkscape:zoom="2.8"
     inkscape:cx="50.141715"
     inkscape:cy="-16.270032"
     inkscape:document-units="px"
     inkscape:current-layer="layer1"
     showgrid="false"
     units="px"
     fit-margin-top="0"
     fit-margin-left="0"
     fit-margin-right="0"
     fit-margin-bottom="0"
     inkscape:window-width="1680"
     inkscape:window-height="987"
     inkscape:window-x="-8"
     inkscape:window-y="-8"
     inkscape:window-maximized="1" />
  <metadata
     id="metadata3550">
    <rdf:RDF>
      <cc:Work
         rdf:about="">
        <dc:format>image/svg+xml</dc:format>
        <dc:type
           rdf:resource="http://purl.org/dc/dcmitype/StillImage" />
        <dc:title></dc:title>
      </cc:Work>
    </rdf:RDF>
  </metadata>
  <g
     inkscape:label="Layer 1"
     inkscape:groupmode="layer"
     id="layer1"
     transform="translate(215.51432,35.69205)">
    <g
       style="display:inline;opacity:1;fill-opacity:1;stroke-width:1.37993634"
       transform="matrix(0.19173589,0,0,0.19173589,-215.51437,-37.198711)"
       id="g5538">
      <g
         style="fill-opacity:1;stroke-width:1.37993634"
         id="g5506">
        <g
           style="fill-opacity:1;stroke-width:1.37993634"
           id="g5504">
          <path
             style="fill-opacity:1;stroke-width:1.37993634"
             inkscape:connector-curvature="0"
             d="m 30.512,43.939 c -2.348,-0.676 -4.696,-1.019 -6.98,-1.019 -3.527,0 -6.47,0.806 -8.752,1.793 2.2,-8.054 7.485,-21.951 18.013,-23.516 0.975,-0.145 1.774,-0.85 2.04,-1.799 l 2.301,-8.23 C 37.328,10.472 37.213,9.727 36.816,9.123 36.419,8.519 35.781,8.116 35.066,8.018 34.289,7.912 33.497,7.858 32.712,7.858 20.075,7.858 7.56,21.048 2.279,39.934 c -3.1,11.08 -4.009,27.738 3.627,38.223 4.273,5.867 10.507,9 18.529,9.313 0.033,0.001 0.065,0.002 0.098,0.002 9.898,0 18.675,-6.666 21.345,-16.209 1.595,-5.705 0.874,-11.688 -2.032,-16.851 -2.875,-5.105 -7.61,-8.826 -13.334,-10.473 z"
             id="path5500" />
          <path
             style="fill-opacity:1;stroke-width:1.37993634"
             inkscape:connector-curvature="0"
             d="M 92.471,54.413 C 89.596,49.307 84.861,45.586 79.137,43.939 76.789,43.263 74.441,42.92 72.158,42.92 c -3.527,0 -6.471,0.806 -8.753,1.793 2.2,-8.054 7.485,-21.951 18.014,-23.516 0.975,-0.145 1.773,-0.85 2.04,-1.799 l 2.301,-8.23 C 85.954,10.472 85.839,9.727 85.442,9.123 85.046,8.519 84.408,8.116 83.692,8.018 82.916,7.912 82.124,7.858 81.338,7.858 c -12.637,0 -25.152,13.19 -30.434,32.076 -3.099,11.08 -4.008,27.738 3.629,38.225 4.272,5.866 10.507,9 18.528,9.312 0.033,10e-4 0.065,0.002 0.099,0.002 9.897,0 18.675,-6.666 21.345,-16.209 1.593,-5.705 0.871,-11.689 -2.034,-16.851 z"
             id="path5502" />
        </g>
      </g>
      <g
         style="fill-opacity:1;stroke-width:1.37993634"
         id="g5508" />
      <g
         style="fill-opacity:1;stroke-width:1.37993634"
         id="g5510" />
      <g
         style="fill-opacity:1;stroke-width:1.37993634"
         id="g5512" />
      <g
         style="fill-opacity:1;stroke-width:1.37993634"
         id="g5514" />
      <g
         style="fill-opacity:1;stroke-width:1.37993634"
         id="g5516" />
      <g
         style="fill-opacity:1;stroke-width:1.37993634"
         id="g5518" />
      <g
         style="fill-opacity:1;stroke-width:1.37993634"
         id="g5520" />
      <g
         style="fill-opacity:1;stroke-width:1.37993634"
         id="g5522" />
      <g
         style="fill-opacity:1;stroke-width:1.37993634"
         id="g5524" />
      <g
         style="fill-opacity:1;stroke-width:1.37993634"
         id="g5526" />
      <g
         style="fill-opacity:1;stroke-width:1.37993634"
         id="g5528" />
      <g
         style="fill-opacity:1;stroke-width:1.37993634"
         id="g5530" />
      <g
         style="fill-opacity:1;stroke-width:1.37993634"
         id="g5532" />
      <g
         style="fill-opacity:1;stroke-width:1.37993634"
         id="g5534" />
      <g
         style="fill-opacity:1;stroke-width:1.37993634"
         id="g5536" />
    </g>
  </g>
</svg>
