<?xml version="1.0" encoding="UTF-8" standalone="no"?>
<!-- Created with Inkscape (http://www.inkscape.org/) -->

<svg
   xmlns:dc="http://purl.org/dc/elements/1.1/"
   xmlns:cc="http://creativecommons.org/ns#"
   xmlns:rdf="http://www.w3.org/1999/02/22-rdf-syntax-ns#"
   xmlns:svg="http://www.w3.org/2000/svg"
   xmlns="http://www.w3.org/2000/svg"
   xmlns:xlink="http://www.w3.org/1999/xlink"
   xmlns:sodipodi="http://sodipodi.sourceforge.net/DTD/sodipodi-0.dtd"
   xmlns:inkscape="http://www.inkscape.org/namespaces/inkscape"
   width="424.99997"
   height="425.00003"
   viewBox="0 0 112.44791 112.44793"
   version="1.1"
   id="svg3605"
   inkscape:version="0.92.4 (5da689c313, 2019-01-14)"
   sodipodi:docname="astronaut__outter-space.svg">
  <defs
     id="defs3599">
    <linearGradient
       inkscape:collect="always"
       xlink:href="#linearGradient7327"
       id="linearGradient7329"
       x1="301.80466"
       y1="470.13834"
       x2="391.09479"
       y2="387.20767"
       gradientUnits="userSpaceOnUse"
       gradientTransform="matrix(1.0625,0,0,1.0625024,-65.886808,-294.2752)" />
    <linearGradient
       inkscape:collect="always"
       id="linearGradient7327">
      <stop
         style="stop-color:#2c3e50;stop-opacity:1"
         offset="0"
         id="stop7323" />
      <stop
         style="stop-color:#3498db;stop-opacity:1"
         offset="1"
         id="stop7325" />
    </linearGradient>
  </defs>
  <sodipodi:namedview
     id="base"
     pagecolor="#ffffff"
     bordercolor="#666666"
     borderopacity="1.0"
     inkscape:pageopacity="0.0"
     inkscape:pageshadow="2"
     inkscape:zoom="0.98994949"
     inkscape:cx="220.38646"
     inkscape:cy="205.91892"
     inkscape:document-units="px"
     inkscape:current-layer="layer1"
     showgrid="false"
     units="px"
     fit-margin-top="0"
     fit-margin-left="0"
     fit-margin-right="0"
     fit-margin-bottom="0"
     inkscape:window-width="1680"
     inkscape:window-height="987"
     inkscape:window-x="-8"
     inkscape:window-y="-8"
     inkscape:window-maximized="1" />
  <metadata
     id="metadata3602">
    <rdf:RDF>
      <cc:Work
         rdf:about="">
        <dc:format>image/svg+xml</dc:format>
        <dc:type
           rdf:resource="http://purl.org/dc/dcmitype/StillImage" />
        <dc:title></dc:title>
      </cc:Work>
    </rdf:RDF>
  </metadata>
  <g
     inkscape:label="Layer 1"
     inkscape:groupmode="layer"
     id="layer1"
     transform="translate(166.59301,-17.014134)">
    <g
       id="g2597"
       transform="matrix(0.99999985,0,0,0.99991317,-418.34385,-85.45659)"
       style="display:inline;opacity:1;stroke-width:1.00004339">
      <path
         sodipodi:nodetypes="csccsccccccccccc"
         style="fill:url(#linearGradient7329);fill-opacity:1;stroke-width:0.26459482"
         inkscape:connector-curvature="0"
         d="m 364.19879,102.47963 v 72.7294 c 0,21.86386 -17.72367,39.58816 -39.58749,39.58758 h -72.86042 v -72.7294 c 0,-14.33289 7.61755,-26.88799 19.02627,-33.83524 1.96597,-1.19827 4.03345,-2.22144 6.17857,-3.05771 1.26242,-0.49318 2.54976,-0.92 3.85676,-1.27871 0.0255,-0.008 0.0522,-0.0158 0.0777,-0.0219 0.38615,-0.10561 0.77474,-0.20522 1.16577,-0.29873 0.0219,-0.006 0.0425,-0.0109 0.0644,-0.0157 2.40991,-0.5742 4.86839,-0.921 7.34312,-1.03583 0.29265,-0.0134 0.58531,-0.0243 0.88039,-0.0303 0.10561,-0.003 0.21251,-0.006 0.32058,-0.006 0.22344,-0.005 0.4481,-0.007 0.67396,-0.007 z"
         id="path7173" />
      <path
         style="fill:#e8e9ed;fill-opacity:1;stroke-width:0.26459485"
         inkscape:connector-curvature="0"
         d="m 304.14861,197.53202 c -28.87773,0 -52.29839,7.78705 -52.39656,17.40529 h 104.79313 c -0.0982,-9.61824 -23.51884,-17.40529 -52.39657,-17.40529 z"
         id="path7175" />
      <g
         transform="matrix(0.12129102,0,0,0.12129129,251.75089,124.09014)"
         style="opacity:0.1;stroke-width:2.18148518"
         id="g7179">
        <ellipse
           cx="352"
           cy="692"
           rx="80"
           ry="22.222219"
           id="ellipse7177"
           style="stroke-width:2.18148518" />
      </g>
      <g
         transform="matrix(0.12129102,0,0,0.12129129,251.75089,124.09014)"
         style="opacity:0.1;stroke-width:2.18148518"
         id="g7183">
        <ellipse
           cx="525"
           cy="652"
           rx="80"
           ry="22.222219"
           id="ellipse7181"
           style="stroke-width:2.18148518" />
      </g>
      <g
         transform="matrix(0.12129102,0,0,0.12129129,251.75089,124.09014)"
         style="opacity:0.1;stroke-width:2.18148518"
         id="g7187">
        <ellipse
           cx="352"
           cy="692"
           rx="72"
           ry="20"
           id="ellipse7185"
           style="stroke-width:2.18148518" />
      </g>
      <g
         transform="matrix(0.12129102,0,0,0.12129129,251.75089,124.09014)"
         style="opacity:0.1;stroke-width:2.18148518"
         id="g7191">
        <ellipse
           cx="525"
           cy="652"
           rx="72"
           ry="20"
           id="ellipse7189"
           style="stroke-width:2.18148518" />
      </g>
      <ellipse
         ry="0.84903902"
         rx="0.84903711"
         style="fill:#f2f2f2;stroke-width:0.26459485"
         cx="268.48907"
         cy="159.26462"
         id="circle7193" />
      <ellipse
         ry="0.84903902"
         rx="0.84903711"
         style="fill:#f2f2f2;stroke-width:0.26459485"
         cx="341.50623"
         cy="192.4984"
         id="circle7195" />
      <ellipse
         ry="0.84903902"
         rx="0.84903711"
         style="fill:#f2f2f2;stroke-width:0.26459485"
         cx="301.48019"
         cy="165.20786"
         id="circle7197" />
      <ellipse
         ry="0.48516518"
         rx="0.48516408"
         style="fill:#e54f6d;fill-opacity:1;stroke-width:0.26459485"
         cx="343.56821"
         cy="160.1136"
         id="circle7199" />
      <ellipse
         ry="0.48516518"
         rx="0.48516408"
         style="fill:#e54f6d;fill-opacity:1;stroke-width:0.26459485"
         cx="270.42972"
         cy="184.3719"
         id="circle7201" />
      <polygon
         transform="matrix(0.12129102,0,0,0.12129129,251.75089,124.09014)"
         style="fill:#f2f2f2;stroke-width:2.18148518"
         points="94,581.322 92.178,581.322 92.178,579.5 91.822,579.5 91.822,581.322 90,581.322 90,581.678 91.822,581.678 91.822,583.5 92.178,583.5 92.178,581.678 94,581.678 "
         id="polygon7203" />
      <polygon
         transform="matrix(0.12129102,0,0,0.12129129,251.75089,124.09014)"
         style="fill:#f2f2f2;stroke-width:2.18148518"
         points="679,433.322 677.178,433.322 677.178,431.5 676.822,431.5 676.822,433.322 675,433.322 675,433.678 676.822,433.678 676.822,435.5 677.178,435.5 677.178,433.678 679,433.678 "
         id="polygon7205" />
      <polygon
         transform="matrix(0.12129102,0,0,0.12129129,251.75089,124.09014)"
         style="fill:#f2f2f2;stroke-width:2.18148518"
         points="505,483.322 503.178,483.322 503.178,481.5 502.822,481.5 502.822,483.322 501,483.322 501,483.678 502.822,483.678 502.822,485.5 503.178,485.5 503.178,483.678 505,483.678 "
         id="polygon7209" />
      <polygon
         transform="matrix(0.12129102,0,0,0.12129129,251.75089,124.09014)"
         style="fill:#f2f2f2;stroke-width:2.18148518"
         points="786,493.322 784.178,493.322 784.178,491.5 783.822,491.5 783.822,493.322 782,493.322 782,493.678 783.822,493.678 783.822,495.5 784.178,495.5 784.178,493.678 786,493.678 "
         id="polygon7211" />
      <polygon
         transform="matrix(0.12129102,0,0,0.12129129,251.75089,124.09014)"
         style="fill:#f2f2f2;stroke-width:2.18148518"
         points="447,536.322 445.178,536.322 445.178,534.5 444.822,534.5 444.822,536.322 443,536.322 443,536.678 444.822,536.678 444.822,538.5 445.178,538.5 445.178,536.678 447,536.678 "
         id="polygon7213" />
      <polygon
         transform="matrix(0.12129102,0,0,0.12129129,251.75089,124.09014)"
         style="fill:#f2f2f2;stroke-width:2.18148518"
         points="575,538.322 573.178,538.322 573.178,536.5 572.822,536.5 572.822,538.322 571,538.322 571,538.678 572.822,538.678 572.822,540.5 573.178,540.5 573.178,538.678 575,538.678 "
         id="polygon7215" />
      <polygon
         transform="matrix(0.12129102,0,0,0.12129129,251.75089,124.09014)"
         style="fill:#f2f2f2;stroke-width:2.18148518"
         points="96,368.322 94.178,368.322 94.178,366.5 93.822,366.5 93.822,368.322 92,368.322 92,368.678 93.822,368.678 93.822,370.5 94.178,370.5 94.178,368.678 96,368.678 "
         id="polygon7217" />
      <rect
         style="fill:#e6e6e6;stroke-width:0.26459485"
         x="333.86453"
         y="152.07072"
         width="0.34864253"
         height="7.0425868"
         id="rect7219" />
      <polygon
         transform="matrix(0.12129102,0,0,0.12129129,251.75089,124.09014)"
         style="fill:#e6e6e6;stroke-width:2.18148518"
         points="611.748,385.046 585.303,445.984 590.477,454.607 588.752,457.481 600.825,463.805 600.825,460.356 605.424,459.206 624.97,423.563 "
         id="polygon7221" />
      <path
         style="fill:#e6e6e6;stroke-width:0.26459485"
         inkscape:connector-curvature="0"
         d="m 323.44015,179.50892 c 0,0 -2.37076,3.69561 0.27892,4.25344 2.64967,0.55783 0.4881,-3.9048 0.4881,-3.9048 z"
         id="path7223" />
      <path
         style="fill:#ffffff;stroke-width:0.26459485"
         inkscape:connector-curvature="0"
         d="m 326.85684,177.83543 -0.83674,2.71941 -0.34864,3.48644 -0.62756,1.25511 0.69728,5.64802 1.11566,1.11566 0.4881,5.57828 v 2.51023 l 1.32484,2.30104 -1.70605,2.4215 a 0.77152245,0.77152419 0 0 0 0.6053,1.21666 c 0.37665,0.01 0.87318,-0.0966 1.51912,-0.43065 2.02212,-1.04592 1.9524,-2.02213 1.9524,-2.02213 0,0 1.25511,0 1.32484,-0.9762 0.0697,-0.97619 -0.76702,-7.94905 -0.76702,-7.94905 l -0.76701,-2.99832 v -8.15825 h 0.27891 l 0.13946,6.97286 0.62756,2.57995 0.0697,1.11565 0.90647,11.15659 c 0,0 4.04425,1.11565 4.25343,0.20918 0.20919,-0.90648 -1.53402,-1.4643 -1.53402,-1.4643 l 1.04592,-2.02213 v -3.9048 l -0.34864,-0.83674 -0.62756,-5.64801 1.04593,-1.11567 0.55782,-0.69728 v -5.57829 l -0.69728,-2.16158 -0.20918,-1.81295 -1.11566,-2.78914 c 0,0 -5.09017,-1.67348 -8.36741,0.27891 z"
         id="path7225" />
      <path
         style="fill:#3f3d56;fill-opacity:1;stroke-width:0.26459485"
         inkscape:connector-curvature="0"
         d="m 335.92154,162.07678 a 5.2993597,5.2993717 0 1 1 -9.5528,-3.1608 l 10e-4,-10e-4 a 5.2988527,5.2988647 0 0 1 9.5514,3.1622 z"
         id="path7227" />
      <g
         transform="matrix(0.12129102,0,0,0.12129129,251.75089,124.09014)"
         style="opacity:0.1;stroke-width:2.18148518"
         id="g7231">
        <path
           inkscape:connector-curvature="0"
           d="m 824.7474,370.57057 -3.56426,20.41418 c -26.784,-69.52663 -69.38863,-26.81841 -70.1245,-26.07107 a 43.69088,43.69088 0 0 1 73.68876,5.65689 z"
           transform="translate(-137,-75.5)"
           id="path7229"
           style="stroke-width:2.18148518" />
      </g>
      <path
         style="fill:#ffffff;stroke-width:0.26459485"
         inkscape:connector-curvature="0"
         d="m 335.30793,159.60071 -0.43231,2.47606 c -3.24867,-8.43297 -8.41623,-3.25284 -8.50548,-3.16219 a 5.29931,5.299322 0 0 1 8.93779,0.68613 z"
         id="path7233" />
      <path
         style="fill:#ffffff;stroke-width:0.26459485"
         inkscape:connector-curvature="0"
         d="m 334.58148,158.55538 0.72645,2.52168 c 0,0 -1.50796,4.51973 -8.50081,4.67726 l -0.22918,0.64563 -0.76701,0.20919 -0.34864,1.4643 0.97619,9.2739 c 0,0 -0.41837,0.90647 0.27891,0.83674 0,0 4.60208,-1.53402 8.5766,-0.13946 0,0 0.83674,0.34865 0.62756,-0.41837 0,0 2.78914,-1.74321 2.57995,-3.55616 -0.20918,-1.81294 0.20919,-10.2501 0.20919,-10.2501 0,0 0.41837,-2.4405 -0.83674,-2.99832 -10e-6,-1e-5 -1.84339,-2.58018 -3.29247,-2.26629 z"
         id="path7235" />
      <path
         style="fill:#e6e6e6;stroke-width:0.26459485"
         inkscape:connector-curvature="0"
         d="m 333.05279,176.17474 c 0,0 -4.3687,0.43872 -3.15938,2.86144 1.20933,2.42271 3.36279,-2.04383 3.36279,-2.04383 z"
         id="path7237" />
      <path
         style="fill:#e6e6e6;stroke-width:0.26459485"
         inkscape:connector-curvature="0"
         d="m 335.29398,165.35402 c 0,0 -0.76701,0.90647 -0.4881,2.37077 0.27892,1.4643 1.32484,4.74154 1.32484,4.74154 l -3.6956,3.41671 1.11565,1.53402 5.02045,-2.57995 1.11565,-0.69729 v 0 a 28.928715,28.92878 0 0 0 -2.04882,-8.20419 l -0.18249,-0.44216 c 0,0 -1.32484,-0.55782 -2.16158,-0.13945 z"
         id="path7239" />
      <ellipse
         ry="1.289979"
         rx="1.289976"
         style="fill:#e6e6e6;stroke-width:0.26459485"
         cx="334.94531"
         cy="161.58862"
         id="circle7241" />
      <ellipse
         ry="0.94133568"
         rx="0.94133353"
         style="fill:#e6e6e6;stroke-width:0.26459485"
         cx="334.03888"
         cy="152.03581"
         id="circle7243" />
      <polygon
         transform="matrix(0.12129102,0,0,0.12129129,251.75089,124.09014)"
         style="fill:#f2f2f2;stroke-width:2.18148518"
         points="481,352.322 479.178,352.322 479.178,350.5 478.822,350.5 478.822,352.322 477,352.322 477,352.678 478.822,352.678 478.822,354.5 479.178,354.5 479.178,352.678 481,352.678 "
         id="polygon7245" />
      <polygon
         transform="matrix(0.12129102,0,0,0.12129129,251.75089,124.09014)"
         style="fill:#f2f2f2;stroke-width:2.18148518"
         points="645,296.322 643.178,296.322 643.178,294.5 642.822,294.5 642.822,296.322 641,296.322 641,296.678 642.822,296.678 642.822,298.5 643.178,298.5 643.178,296.678 645,296.678 "
         id="polygon7247" />
      <polygon
         transform="matrix(0.12129102,0,0,0.12129129,251.75089,124.09014)"
         style="fill:#f2f2f2;stroke-width:2.18148518"
         points="627,313.322 625.178,313.322 625.178,311.5 624.822,311.5 624.822,313.322 623,313.322 623,313.678 624.822,313.678 624.822,315.5 625.178,315.5 625.178,313.678 627,313.678 "
         id="polygon7249" />
      <ellipse
         ry="0.48516518"
         rx="0.48516408"
         style="fill:#f2f2f2;stroke-width:0.26459485"
         cx="319.18869"
         cy="156.47487"
         id="circle7251" />
      <ellipse
         ry="10.185941"
         rx="10.185917"
         style="fill:#e54f6d;fill-opacity:1;stroke-width:0.26459485"
         cx="273.85599"
         cy="146.6517"
         id="circle7171" />
      <path
         style="fill:#e8e9ed;fill-opacity:1;stroke-width:0.26459485"
         inkscape:connector-curvature="0"
         d="m 295.28924,159.89465 c 0,33.84561 -4.25592,33.84561 -9.50431,33.84561 -2.71344,0 -5.16137,0 -6.89245,-4.67527 -0.49769,-1.34366 -0.93737,-3.07621 -1.30594,-5.30646 -0.82999,-5.01336 -1.30594,-12.54718 -1.30594,-23.86388 0,-4.35168 0.51512,-8.61775 1.30594,-12.60232 0.38017,-1.91828 0.82418,-3.76982 1.30594,-5.53574 0.58913,-2.16205 1.23484,-4.19498 1.88635,-6.05521 0.43677,-1.2508 0.87789,-2.4247 1.30594,-3.50862 1.97777,-5.00321 3.70016,-8.10262 3.70016,-8.10262 0,0 9.50431,17.11216 9.50431,35.80451 z"
         id="path7253" />
      <ellipse
         ry="5.2237597"
         rx="5.2237477"
         style="fill:#ffffff;fill-opacity:1;stroke-width:0.26459485"
         cx="285.49472"
         cy="147.4519"
         id="circle7259" />
      <path
         style="fill:#3f3d56;fill-opacity:1;stroke-width:0.26459485"
         inkscape:connector-curvature="0"
         d="m 296.95794,190.54797 c -1.16148,-2.85905 -2.6528,-3.35231 -3.6276,-3.30942 v -0.4633 H 278.0944 v 0.4633 c -0.9748,-0.0429 -2.46612,0.45037 -3.62759,3.30942 -1.88635,4.64334 1.16082,12.62409 1.16082,12.62409 0,0 -1.62847,-11.13054 3.77923,-11.2038 a 6.3996026,6.3996171 0 0 0 1.69646,1.53913 v 2.99364 h 8.73295 v -2.72106 a 6.3928856,6.3929 0 0 0 2.18162,-1.81172 c 5.4077,0.0732 3.77922,11.20381 3.77922,11.20381 0,0 3.04717,-7.98075 1.16083,-12.62409 z"
         id="path7261" />
      <polygon
         transform="matrix(0.12129102,0,0,0.12129129,251.75089,81.600394)"
         style="fill:#f2f2f2;stroke-width:2.18148518"
         points="827.822,401.5 827.822,403.322 826,403.322 826,403.678 827.822,403.678 827.822,405.5 828.178,405.5 828.178,403.678 830,403.678 830,403.322 828.178,403.322 828.178,401.5 "
         id="polygon7207" />
      <path
         style="fill:#3f3d56;fill-opacity:1;stroke:#3f3d56;stroke-width:0.26459485;stroke-opacity:1"
         inkscape:connector-curvature="0"
         d="m 349.40689,102.61192 h -0.36653 a 15.043477,15.044295 0 0 0 15.02615,14.94451 v -0.36656 a 14.675859,14.676658 0 0 1 -14.65962,-14.57795 z"
         id="path7265" />
      <path
         style="fill:#3f3d56;fill-opacity:1;stroke:#3f3d56;stroke-width:0.26459485;stroke-opacity:1"
         inkscape:connector-curvature="0"
         d="m 338.91813,102.61192 h -0.42991 a 25.605195,25.605776 0 0 0 25.57823,25.48206 v -0.42992 a 25.176786,25.177356 0 0 1 -25.14832,-25.05214 z"
         id="path7267" />
      <path
         style="fill:#3f3d56;fill-opacity:1;stroke:#3f3d56;stroke-width:0.26459485;stroke-opacity:1"
         inkscape:connector-curvature="0"
         d="m 328.42044,102.61192 h -0.45994 c 0.0576,19.8608 16.23156,36.00058 36.10592,36.00058 v -0.45995 c -19.62138,0 -35.58847,-15.93281 -35.64598,-35.54063 z"
         id="path7269" />
      <g
         transform="matrix(0.12129102,0,0,0.11190463,251.75089,124.7172)"
         style="opacity:1;fill:#ffffff;fill-opacity:1;stroke-width:2.27113533"
         id="g7257">
        <path
           inkscape:connector-curvature="0"
           d="m 387.09174,142.303 v 486.49975 h -10.767 V 171.2303 c 3.601,-10.31236 7.23789,-19.99063 10.767,-28.9273 z"
           transform="translate(-137,-75.5)"
           id="path7255"
           style="fill:#ffffff;fill-opacity:1;stroke-width:2.27113533" />
      </g>
      <ellipse
         ry="4.0629244"
         rx="4.0629153"
         style="fill:#3f3d56;fill-opacity:1;stroke-width:0.26459485"
         cx="285.49472"
         cy="147.4519"
         id="circle7263" />
      <ellipse
         ry="0.84903902"
         rx="0.84903711"
         style="fill:#f2f2f2;stroke-width:0.26459485"
         cx="310.18466"
         cy="137.83089"
         id="circle7775" />
      <ellipse
         ry="0.84903902"
         rx="0.84903711"
         style="fill:#f2f2f2;stroke-width:0.26459485"
         cx="341.91254"
         cy="123.83878"
         id="circle7777" />
      <ellipse
         ry="0.48516518"
         rx="0.48516408"
         style="fill:#f2f2f2;stroke-width:0.26459485"
         cx="301.63937"
         cy="118.42795"
         id="circle7781" />
      <ellipse
         ry="0.48516518"
         rx="0.48516408"
         style="fill:#f2f2f2;stroke-width:0.26459485"
         cx="269.0679"
         cy="125.02644"
         id="circle7783" />
      <ellipse
         ry="0.62555987"
         rx="0.62555844"
         id="circle7779"
         cy="116.18166"
         cx="324.52368"
         style="fill:#e54f6d;fill-opacity:1;stroke-width:0.26459485" />
      <polygon
         transform="matrix(0.12129102,0,0,0.12129129,252.94217,104.18569)"
         style="fill:#f2f2f2;stroke-width:2.18148518"
         points="479.178,352.322 479.178,350.5 478.822,350.5 478.822,352.322 477,352.322 477,352.678 478.822,352.678 478.822,354.5 479.178,354.5 479.178,352.678 481,352.678 481,352.322 "
         id="polygon7811" />
      <polygon
         transform="matrix(0.12129102,0,0,0.12129129,269.31454,99.757062)"
         style="fill:#f2f2f2;stroke-width:2.18148518"
         points="479.178,350.5 478.822,350.5 478.822,352.322 477,352.322 477,352.678 478.822,352.678 478.822,354.5 479.178,354.5 479.178,352.678 481,352.678 481,352.322 479.178,352.322 "
         id="polygon7813" />
      <polygon
         transform="matrix(0.12129102,0,0,0.12129129,255.2751,80.94418)"
         style="fill:#f2f2f2;stroke-width:2.18148518"
         points="479.178,350.5 478.822,350.5 478.822,352.322 477,352.322 477,352.678 478.822,352.678 478.822,354.5 479.178,354.5 479.178,352.678 481,352.678 481,352.322 479.178,352.322 "
         id="polygon7815" />
      <polygon
         transform="matrix(0.12129102,0,0,0.12129129,226.21347,69.712611)"
         style="fill:#f2f2f2;stroke-width:2.18148518"
         points="479.178,350.5 478.822,350.5 478.822,352.322 477,352.322 477,352.678 478.822,352.678 478.822,354.5 479.178,354.5 479.178,352.678 481,352.678 481,352.322 479.178,352.322 "
         id="polygon7817" />
      <polygon
         transform="matrix(0.12129102,0,0,0.12129129,218.77258,87.261945)"
         style="fill:#f2f2f2;stroke-width:2.18148518"
         points="479.178,350.5 478.822,350.5 478.822,352.322 477,352.322 477,352.678 478.822,352.678 478.822,354.5 479.178,354.5 479.178,352.678 481,352.678 481,352.322 479.178,352.322 "
         id="polygon7819" />
      <polygon
         transform="matrix(0.12129102,0,0,0.12129129,294.30473,106.21522)"
         style="fill:#f2f2f2;stroke-width:2.18148518"
         points="479.178,350.5 478.822,350.5 478.822,352.322 477,352.322 477,352.678 478.822,352.678 478.822,354.5 479.178,354.5 479.178,352.678 481,352.678 481,352.322 479.178,352.322 "
         id="polygon7821" />
      <polygon
         transform="matrix(0.12129102,0,0,0.12129129,198.97697,96.808779)"
         style="fill:#f2f2f2;stroke-width:2.18148518"
         points="479.178,350.5 478.822,350.5 478.822,352.322 477,352.322 477,352.678 478.822,352.678 478.822,354.5 479.178,354.5 479.178,352.678 481,352.678 481,352.322 479.178,352.322 "
         id="polygon7823" />
      <polygon
         transform="matrix(0.12129102,0,0,0.12129129,201.78485,139.76955)"
         style="fill:#f2f2f2;stroke-width:2.18148518"
         points="479.178,350.5 478.822,350.5 478.822,352.322 477,352.322 477,352.678 478.822,352.678 478.822,354.5 479.178,354.5 479.178,352.678 481,352.678 481,352.322 479.178,352.322 "
         id="polygon7825" />
      <polygon
         transform="matrix(0.12129102,0,0,0.12129129,302.588,67.045114)"
         style="fill:#f2f2f2;stroke-width:2.18148518"
         points="479.178,350.5 478.822,350.5 478.822,352.322 477,352.322 477,352.678 478.822,352.678 478.822,354.5 479.178,354.5 479.178,352.678 481,352.678 481,352.322 479.178,352.322 "
         id="polygon7827" />
      <polygon
         transform="matrix(0.12129102,0,0,0.12129129,287.00423,69.151028)"
         style="fill:#f2f2f2;stroke-width:2.18148518"
         points="479.178,350.5 478.822,350.5 478.822,352.322 477,352.322 477,352.678 478.822,352.678 478.822,354.5 479.178,354.5 479.178,352.678 481,352.678 481,352.322 479.178,352.322 "
         id="polygon7829" />
      <polygon
         id="polygon7809"
         points="479.178,350.5 478.822,350.5 478.822,352.322 477,352.322 477,352.678 478.822,352.678 478.822,354.5 479.178,354.5 479.178,352.678 481,352.678 481,352.322 479.178,352.322 "
         style="fill:#f2f2f2;stroke-width:2.18148518"
         transform="matrix(0.12129102,0,0,0.12129129,268.47218,87.261945)" />
      <ellipse
         ry="0.48516518"
         rx="0.48516408"
         style="fill:#f2f2f2;stroke-width:0.26459485"
         cx="357.65674"
         cy="159.28275"
         id="circle7833" />
    </g>
  </g>
</svg>
