<?xml version="1.0" encoding="UTF-8" standalone="no"?>
<!-- Created with Inkscape (http://www.inkscape.org/) -->

<svg
   xmlns:dc="http://purl.org/dc/elements/1.1/"
   xmlns:cc="http://creativecommons.org/ns#"
   xmlns:rdf="http://www.w3.org/1999/02/22-rdf-syntax-ns#"
   xmlns:svg="http://www.w3.org/2000/svg"
   xmlns="http://www.w3.org/2000/svg"
   xmlns:xlink="http://www.w3.org/1999/xlink"
   xmlns:sodipodi="http://sodipodi.sourceforge.net/DTD/sodipodi-0.dtd"
   xmlns:inkscape="http://www.inkscape.org/namespaces/inkscape"
   width="180"
   height="180"
   viewBox="0 0 47.624999 47.625001"
   version="1.1"
   id="svg4372"
   inkscape:version="0.92.4 (5da689c313, 2019-01-14)"
   sodipodi:docname="mission-plan__dock.svg">
  <defs
     id="defs4366">
    <linearGradient
       inkscape:collect="always"
       xlink:href="#linearGradient7071"
       id="linearGradient3835"
       gradientUnits="userSpaceOnUse"
       gradientTransform="matrix(0.46474464,0,0,0.46474464,-10.368501,332.49375)"
       x1="24.821949"
       y1="576.97968"
       x2="156.96593"
       y2="707.19342" />
    <linearGradient
       inkscape:collect="always"
       id="linearGradient7071">
      <stop
         style="stop-color:#2c3e50;stop-opacity:1"
         offset="0"
         id="stop7065" />
      <stop
         style="stop-color:#3498db;stop-opacity:1"
         offset="1"
         id="stop7069" />
    </linearGradient>
    <linearGradient
       inkscape:collect="always"
       xlink:href="#b13d5aa8-7d59-4aa5-8b0c-a1087af90b05"
       id="linearGradient3837"
       gradientUnits="userSpaceOnUse"
       gradientTransform="matrix(0.12296369,0,0,0.12296369,-31.296541,578.34871)"
       x1="632.93073"
       y1="457.00247"
       x2="719.74066"
       y2="457.00247" />
    <linearGradient
       gradientUnits="userSpaceOnUse"
       y2="457.00247"
       x2="719.74066"
       y1="457.00247"
       x1="632.93073"
       id="b13d5aa8-7d59-4aa5-8b0c-a1087af90b05">
      <stop
         id="stop5383"
         stop-color="#fff"
         offset="0" />
      <stop
         id="stop5385"
         stop-opacity="0.3"
         stop-color="#fff"
         offset="1" />
    </linearGradient>
    <linearGradient
       inkscape:collect="always"
       xlink:href="#b13d5aa8-7d59-4aa5-8b0c-a1087af90b05"
       id="linearGradient3839"
       gradientTransform="matrix(0.12296369,0,0,0.12296369,-31.296541,578.34871)"
       x1="578.93073"
       y1="243.00246"
       x2="665.74066"
       y2="243.00246" />
  </defs>
  <sodipodi:namedview
     id="base"
     pagecolor="#ffffff"
     bordercolor="#666666"
     borderopacity="1.0"
     inkscape:pageopacity="0.0"
     inkscape:pageshadow="2"
     inkscape:zoom="1.979899"
     inkscape:cx="57.521771"
     inkscape:cy="52.802123"
     inkscape:document-units="px"
     inkscape:current-layer="layer1"
     showgrid="false"
     units="px"
     fit-margin-top="0"
     fit-margin-left="0"
     fit-margin-right="0"
     fit-margin-bottom="0"
     inkscape:window-width="1680"
     inkscape:window-height="987"
     inkscape:window-x="-8"
     inkscape:window-y="-8"
     inkscape:window-maximized="1" />
  <metadata
     id="metadata4369">
    <rdf:RDF>
      <cc:Work
         rdf:about="">
        <dc:format>image/svg+xml</dc:format>
        <dc:type
           rdf:resource="http://purl.org/dc/dcmitype/StillImage" />
        <dc:title></dc:title>
      </cc:Work>
    </rdf:RDF>
  </metadata>
  <g
     inkscape:label="Layer 1"
     inkscape:groupmode="layer"
     id="layer1"
     transform="translate(109.99107,5.7589252)">
    <g
       style="display:inline;opacity:1;stroke-width:1.94207215"
       transform="matrix(0.51367296,0,0,0.51615787,-108.00038,-309.02615)"
       id="g3800">
      <path
         id="path3717"
         d="M 88.838985,633.9062 A 46.313944,46.313944 0 0 1 49.295093,679.7655 H 36.739267 c -0.01967,0.0169 -0.715644,0.0502 -0.715644,0.0502 -0.116811,-0.0156 -0.234866,-0.0332 -0.351677,-0.0502 q -1.340921,-0.19736 -2.657248,-0.47098 a 45.822827,45.822827 0 0 1 -9.963744,-3.28926 c -0.03322,-0.015 -0.06517,-0.0306 -0.09837,-0.0456 a 45.622392,45.622392 0 0 1 -5.148491,-2.80479 c -0.04182,-0.0261 -0.08239,-0.0515 -0.122966,-0.0775 -0.07009,-0.0443 -0.13895,-0.0873 -0.207809,-0.13281 -0.02215,-0.0137 -0.04429,-0.0274 -0.0664,-0.0417 a 46.241356,46.241356 0 0 1 -4.263153,-3.10363 c -0.0664,-0.0528 -0.132795,-0.10818 -0.199199,-0.16231 q -0.400247,-0.33199 -0.79312,-0.67133 c -0.0026,0 -0.0039,-0.007 -0.0059,-0.007 a 46.806347,46.806347 0 0 1 -3.8081816,-3.69875 c -0.00391,-0.007 -0.0086,-0.008 -0.01231,-0.0137 a 46.263681,46.263681 0 0 1 -10.8613721,-20.239 c -0.014785,-0.0541 -0.02703,-0.10702 -0.040578,-0.16108 a 46.497352,46.497352 0 0 1 -1.2984934,-10.9413 c 0,-25.60232 20.7550381,-46.35734 46.3573091,-46.35734 25.602275,0 46.357313,20.75502 46.357313,46.35734 z"
         inkscape:connector-curvature="0"
         style="fill:url(#linearGradient3835);fill-opacity:1;stroke-width:0.51384002" />
      <path
         id="path3719"
         d="m 46.767382,640.74491 4.054179,-4.74616 4.054185,-4.74623 2.288656,-2.67935 c 0.126627,-0.14824 -0.06879,-0.37953 -0.195414,-0.23129 l -4.054178,4.74624 -4.054185,4.74623 -2.28865,2.67934 c -0.126633,0.14824 0.06878,0.37947 0.195401,0.23122 z"
         inkscape:connector-curvature="0"
         style="opacity:0.8;fill:url(#linearGradient3837);stroke-width:0.51384002" />
      <rect
         id="rect3721"
         height="50.850407"
         width="4.193059"
         y="628.9151"
         x="43.687946"
         style="fill:#2f2e41;stroke-width:0.51384002" />
      <polygon
         id="polygon3723"
         points="407.68,500.64 407.75,488.22 409.95,488.23 409.88,500.61 409.05,650.87 408.95,668.78 408.73,709.14 408.51,749.95 406.31,749.95 406.53,709.14 406.74,671.44 406.85,650.5 "
         style="fill:#787883;fill-opacity:1;stroke-width:4.17879391"
         transform="matrix(0.12296369,0,0,0.12296369,-3.8756369,587.54885)" />
      <path
         id="path3725"
         d="m 48.633647,629.59134 h -5.681415 c -0.08245,-0.89005 0.122686,-1.78642 0.650998,-2.68989 l 0.160633,-1.0977 h 3.922882 l 0.185039,1.08383 c 0.54967,0.7323 0.762625,1.657 0.761863,2.70376 z"
         inkscape:connector-curvature="0"
         style="fill:#2f2e41;stroke-width:0.51384002" />
      <path
         id="path3727"
         d="m 47.808233,625.93904 h -4.0482 a 0.27054348,0.27054348 0 0 1 -0.263068,-0.33368 l 0.681761,-2.84075 a 0.2705447,0.2705447 0 0 1 0.263075,-0.20738 h 2.684657 a 0.2705447,0.2705447 0 0 1 0.263075,0.20738 l 0.681768,2.84075 a 0.2705447,0.2705447 0 0 1 -0.263068,0.33368 z"
         inkscape:connector-curvature="0"
         style="fill:#2f2e41;stroke-width:0.51384002" />
      <path
         id="path3729"
         d="m 45.784475,621.1364 a 1.4218918,1.4218918 0 0 0 -1.420228,1.42148 v 1.42017 h 2.840463 v -1.42017 a 1.4218918,1.4218918 0 0 0 -1.420235,-1.42148 z"
         inkscape:connector-curvature="0"
         style="fill:#2f2e41;stroke-width:0.51384002" />
      <polygon
         id="polygon3731"
         points="391.051,622.109 312.765,723.714 323.592,726.213 384.388,647.927 391.051,647.927 "
         style="fill:#2f2e41;stroke-width:4.17879391"
         transform="matrix(0.12296369,0,0,0.12296369,-3.8756369,587.54885)" />
      <polygon
         id="polygon3733"
         points="419.831,622.109 498.117,723.714 487.29,726.213 426.494,647.927 419.831,647.927 "
         style="fill:#2f2e41;stroke-width:4.17879391"
         transform="matrix(0.12296369,0,0,0.12296369,-3.8756369,587.54885)" />
      <path
         id="path3735"
         d="m 75.974523,617.70567 v 48.25095 a 46.569239,46.569239 0 0 1 -10.138354,8.00253 v -56.25348 z"
         inkscape:connector-curvature="0"
         style="fill:#2f2e41;stroke-width:0.51384002" />
      <rect
         id="rect3737"
         height="6.6565013"
         width="6.6565013"
         y="623.85071"
         x="74.13089"
         style="fill:#2f2e41;stroke-width:0.51384002" />
      <rect
         id="rect3739"
         height="17.409313"
         width="1.5361153"
         y="601.62817"
         x="70.136978"
         style="fill:#2f2e41;stroke-width:0.51384002" />
      <g
         id="g3745"
         style="opacity:0.4;stroke-width:4.17879391"
         transform="matrix(0.12296369,0,0,0.12296369,-3.8756369,587.54885)">
        <path
           id="path3741"
           transform="translate(-223,-74.82001)"
           d="m 796.93,320.07 h -7 v 457.48 q 3.52736,-2.06131 7,-4.20514 z"
           inkscape:connector-curvature="0"
           style="fill:#e6e6e6;stroke-width:4.17879391" />
        <rect
           id="rect3743"
           height="130.75"
           width="7"
           y="114.5"
           x="601.90631"
           style="fill:#e6e6e6;stroke-width:4.17879391" />
      </g>
      <rect
         id="rect3747"
         height="3.0722318"
         width="5.5300164"
         y="625.64282"
         x="67.832809"
         style="fill:#e8e9ed;fill-opacity:1;stroke-width:0.51384002" />
      <circle
         id="circle3749"
         r="8.139286"
         cy="617.65613"
         cx="14.191819"
         style="fill:#e6e6e6;stroke-width:0.51384002" />
      <circle
         id="circle3751"
         r="0.93401617"
         cy="612.05206"
         cx="13.391233"
         style="fill:#cbcbcb;stroke-width:0.51384002" />
      <circle
         id="circle3753"
         r="0.93401617"
         cy="621.39221"
         cx="14.992405"
         style="fill:#cbcbcb;stroke-width:0.51384002" />
      <circle
         id="circle3755"
         r="0.66715425"
         cy="616.18835"
         cx="18.595036"
         style="fill:#cbcbcb;stroke-width:0.51384002" />
      <circle
         id="circle3757"
         r="2.1348944"
         cy="618.3233"
         cx="10.989476"
         style="fill:#cbcbcb;stroke-width:0.51384002" />
      <circle
         id="circle3759"
         r="0.43977839"
         cy="630.48938"
         cx="27.113039"
         style="fill:#e54f6d;fill-opacity:1;stroke-width:0.51384002" />
      <polygon
         id="polygon3761"
         points="282.409,404.056 284.194,402.283 283.012,401.093 281.227,402.866 279.454,401.081 278.264,402.263 280.037,404.048 278.252,405.821 279.434,407.011 281.219,405.238 282.992,407.023 284.182,405.841 "
         style="fill:#e6e6e6;stroke-width:4.17879391"
         transform="matrix(0.12296369,0,0,0.12296369,-3.8756369,587.54885)" />
      <polygon
         id="polygon3763"
         points="296.715,300.338 298.5,298.565 297.318,297.375 295.533,299.148 293.76,297.363 292.57,298.545 294.343,300.33 292.558,302.103 293.74,303.293 295.525,301.52 297.298,303.305 298.488,302.123 "
         style="fill:#e6e6e6;stroke-width:4.17879391"
         transform="matrix(0.12296369,0,0,0.12296369,-3.8756369,587.54885)" />
      <path
         id="path3765"
         d="m 38.212247,599.91354 c -0.474884,0.31642 -0.960925,-0.43665 -0.476903,-0.739 0.474858,-0.31642 0.960892,0.43672 0.476903,0.739 z"
         inkscape:connector-curvature="0"
         style="fill:#e6e6e6;stroke-width:0.51384002" />
      <polygon
         id="polygon3767"
         points="115.741,367.827 118.198,368.366 118.557,366.728 116.1,366.189 116.638,363.731 115,363.372 114.461,365.83 112.004,365.292 111.645,366.93 114.102,367.469 113.564,369.926 115.202,370.285 "
         style="fill:#e6e6e6;stroke-width:4.17879391"
         transform="matrix(0.12296369,0,0,0.12296369,-3.8756369,587.54885)" />
      <polygon
         id="polygon3769"
         points="491.741,72.827 494.198,73.366 494.557,71.728 492.1,71.189 492.638,68.731 491,68.372 490.461,70.83 488.004,70.292 487.645,71.93 490.102,72.469 489.564,74.926 491.202,75.285 "
         style="fill:#e6e6e6;stroke-width:4.17879391"
         transform="matrix(0.12296369,0,0,0.12296369,-3.8756369,587.54885)" />
      <polygon
         id="polygon3771"
         points="683.741,231.827 686.198,232.366 686.557,230.728 684.1,230.189 684.638,227.731 683,227.372 682.461,229.83 680.004,229.292 679.645,230.93 682.102,231.469 681.564,233.926 683.202,234.285 "
         style="fill:#e6e6e6;stroke-width:4.17879391"
         transform="matrix(0.12296369,0,0,0.12296369,-3.8756369,587.54885)" />
      <polygon
         id="polygon3773"
         points="219.644,111.606 222.101,112.144 222.46,110.506 220.003,109.967 220.541,107.51 218.903,107.151 218.364,109.608 215.906,109.07 215.547,110.708 218.005,111.247 217.467,113.705 219.105,114.063 "
         style="fill:#e6e6e6;stroke-width:4.17879391"
         transform="matrix(0.12296369,0,0,0.12296369,-3.8756369,587.54885)" />
      <circle
         id="circle3775"
         r="0.43977839"
         cy="610.73376"
         cx="52.114605"
         style="fill:#e54f6d;fill-opacity:1;stroke-width:0.51384002" />
      <polygon
         id="polygon3777"
         points="425.741,243.827 428.198,244.366 428.557,242.728 426.1,242.189 426.638,239.731 425,239.372 424.461,241.83 422.004,241.292 421.645,242.93 424.102,243.469 423.564,245.926 425.202,246.285 "
         style="fill:#e6e6e6;stroke-width:4.17879391"
         transform="matrix(0.12296369,0,0,0.12296369,-3.8756369,587.54885)" />
      <polygon
         id="polygon3779"
         points="520.644,199.606 523.101,200.144 523.46,198.506 521.003,197.967 521.541,195.51 519.903,195.151 519.364,197.608 516.906,197.07 516.547,198.708 519.005,199.247 518.467,201.705 520.105,202.063 "
         style="fill:#e6e6e6;stroke-width:4.17879391"
         transform="matrix(0.12296369,0,0,0.12296369,-3.8756369,587.54885)" />
      <path
         id="path3781"
         d="m 40.127342,614.43068 4.054178,-4.74616 4.054185,-4.74623 2.288657,-2.67934 c 0.126626,-0.14825 -0.06879,-0.37954 -0.195414,-0.23129 l -4.054179,4.74623 -4.054185,4.74623 -2.28865,2.67934 c -0.126626,0.14824 0.06878,0.37947 0.195408,0.23122 z"
         inkscape:connector-curvature="0"
         style="opacity:0.8;fill:url(#linearGradient3839);stroke-width:0.51384002" />
      <rect
         id="rect3783"
         height="12.545141"
         width="0.73778212"
         y="667.1026"
         x="43.526085"
         style="fill:#e6e6e6;stroke-width:0.51384002" />
      <path
         id="path3785"
         d="m 45.991053,621.06872 a 1.4230514,1.4230514 0 0 0 -1.051337,1.37107 v 0.0124 a 0.27188747,0.27188747 0 0 0 -0.185676,0.19429 l -0.681215,2.84172 a 0.26866828,0.26866828 0 0 0 0.24715,0.33075 l -0.0052,0.0332 -0.01843,0.12297 -0.277893,0.86074 c -0.527519,0.90256 -0.573008,1.74728 -0.490627,2.63759 h 0.735328 v 34.49256 l -9.59609,12.45617 0.705809,0.16232 -0.111894,0.14511 -1.331698,-0.30743 9.59609,-12.45617 v -34.49256 l -0.613593,-0.0554 c -0.08239,-0.89025 0.08731,-1.67974 0.614817,-2.58223 l 0.03198,-0.86074 0.01843,-0.12297 0.0052,-0.0332 a 0.26866828,0.26866828 0 0 1 -0.247156,-0.33082 l 0.681221,-2.84165 a 0.27188747,0.27188747 0 0 1 0.185676,-0.19429 v -0.0124 a 1.4218918,1.4218918 0 0 1 1.420229,-1.42148 1.4057947,1.4057947 0 0 1 0.368891,0.0501 z"
         inkscape:connector-curvature="0"
         style="fill:#e6e6e6;stroke-width:0.51384002" />
      <polygon
         id="polygon3787"
         points="431.177,646.969 425.594,646.969 425.594,647.506 485.974,725.255 491.062,724.081 "
         style="fill:#e6e6e6;stroke-width:4.17879391"
         transform="matrix(0.12296369,0,0,0.12296369,-3.8756369,587.54885)" />
      <path
         id="path3789"
         d="m 59.435903,674.74733 v 2.31785 a 46.050098,46.050098 0 0 1 -10.14081,2.70032 H 34.170555 c -0.387331,-0.0701 -0.773437,-0.14512 -1.155857,-0.22504 v -4.79313 z"
         inkscape:connector-curvature="0"
         style="fill:#2f2e41;stroke-width:0.51384002" />
      <path
         id="path3791"
         d="m 46.422662,667.58223 c -0.08608,-0.015 -0.177073,-0.0293 -0.27052,-0.0456 -0.549651,-0.0885 -1.212426,-0.18935 -1.972341,-0.29389 q -0.07747,-0.0111 -0.15862,-0.0221 c -0.627121,-0.0849 -1.316946,-0.17091 -2.060871,-0.25578 -4.078708,-0.45867 -9.775618,-0.82629 -15.589339,-0.32092 0.143867,-0.57793 0.276669,-1.15586 0.40209,-1.73132 l -5.567795,0.86198 6.008008,-3.05568 a 85.174619,85.174619 0 0 0 1.165692,-9.49031 l -3.007694,0.46479 3.075323,-1.56412 c 0.220106,-3.93851 0.116817,-6.56008 0.116817,-6.56008 0,0 -10.05966,5.22966 -18.103945,13.22229 -0.295108,-1.04026 -0.6185032,-2.06702 -0.9628067,-3.07536 l -4.3209402,3.61518 3.5622558,-5.7203 a 84.746554,84.746554 0 0 0 -3.907784,-8.72675 l -2.3338529,1.95271 1.8247805,-2.929 c -1.846913,-3.48603 -3.2905048,-5.67725 -3.2905048,-5.67725 0,0 -1.6464834,2.69783 -3.6077582,6.86262 a 46.271617,46.271617 0 0 0 10.9142603,20.41441 46.73954,46.73954 0 0 0 3.8143302,3.70364 q 0.39286,0.33941 0.79312,0.6714 a 46.415472,46.415472 0 0 0 4.462352,3.26593 c 0.09099,0.0593 0.181984,0.11679 0.274207,0.17463 a 46.125727,46.125727 0 0 0 15.333572,6.21701 c 0.38242,0.0799 0.768526,0.15495 1.155857,0.22504 0.09468,0.0169 0.189363,0.0345 0.284048,0.0502 h 1.56902 c 0,0 0.695973,-0.0332 0.715644,-0.0502 1.948977,-1.70553 3.715965,-3.42949 5.239489,-5.01817 0.346752,-0.36025 0.679983,-0.71438 1.000923,-1.05868 l -2.628967,-1.53338 3.374123,0.72305 c 0.154934,-0.17098 0.307412,-0.33941 0.454966,-0.5042 0.757453,-0.84596 1.414086,-1.61206 1.958813,-2.26249 0.09345,-0.11313 0.184445,-0.22138 0.271751,-0.3271 0.992312,-1.19768 1.538276,-1.92809 1.538276,-1.92809 0,0 -0.548419,-0.1119 -1.525979,-0.27421 z"
         inkscape:connector-curvature="0"
         style="fill:#2f2e41;stroke-width:0.51384002" />
      <path
         id="path3793"
         d="m 43.525637,629.47332 h -0.735321 c -0.08239,-0.89025 0.122959,-1.78668 0.650471,-2.68924 l 0.118048,-0.80909 0.01843,-0.12297 h 0.737783 l -0.01843,0.12297 -0.118048,0.80909 c -0.527512,0.90256 -0.732859,1.79899 -0.650478,2.68924 h 0.735328"
         inkscape:connector-curvature="0"
         style="fill:#787883;fill-opacity:1;stroke-width:0.51384002" />
      <rect
         id="rect3795"
         height="8.9763498"
         width="0.73778212"
         y="640.11584"
         x="43.525627"
         style="fill:#787883;fill-opacity:1;stroke-width:0.51384002" />
      <circle
         id="circle3797"
         r="1.3526007"
         cy="601.62817"
         cx="70.701843"
         style="fill:#e54f6d;fill-opacity:1;stroke-width:0.51384002" />
    </g>
  </g>
</svg>
