<?xml version="1.0" encoding="UTF-8" standalone="no"?>
<!-- Created with Inkscape (http://www.inkscape.org/) -->

<svg
   xmlns:dc="http://purl.org/dc/elements/1.1/"
   xmlns:cc="http://creativecommons.org/ns#"
   xmlns:rdf="http://www.w3.org/1999/02/22-rdf-syntax-ns#"
   xmlns:svg="http://www.w3.org/2000/svg"
   xmlns="http://www.w3.org/2000/svg"
   xmlns:xlink="http://www.w3.org/1999/xlink"
   xmlns:sodipodi="http://sodipodi.sourceforge.net/DTD/sodipodi-0.dtd"
   xmlns:inkscape="http://www.inkscape.org/namespaces/inkscape"
   width="225"
   height="206.00002"
   viewBox="0 0 59.53125 54.504169"
   version="1.1"
   id="svg3584"
   inkscape:version="0.92.4 (5da689c313, 2019-01-14)"
   sodipodi:docname="ultimate-trip__rocket.svg">
  <defs
     id="defs3578">
    <linearGradient
       inkscape:collect="always"
       xlink:href="#linearGradient9401"
       id="linearGradient2963"
       gradientUnits="userSpaceOnUse"
       x1="29.186836"
       y1="121.07642"
       x2="74.582901"
       y2="154.90529" />
    <linearGradient
       inkscape:collect="always"
       id="linearGradient9401">
      <stop
         style="stop-color:#2c3f51;stop-opacity:1"
         offset="0"
         id="stop9397" />
      <stop
         style="stop-color:#3497d9;stop-opacity:1"
         offset="1"
         id="stop9399" />
    </linearGradient>
  </defs>
  <sodipodi:namedview
     id="base"
     pagecolor="#ffffff"
     bordercolor="#666666"
     borderopacity="1.0"
     inkscape:pageopacity="0.0"
     inkscape:pageshadow="2"
     inkscape:zoom="1.979899"
     inkscape:cx="148.83856"
     inkscape:cy="76.808728"
     inkscape:document-units="mm"
     inkscape:current-layer="layer1"
     showgrid="false"
     fit-margin-top="0"
     fit-margin-left="0"
     fit-margin-right="0"
     fit-margin-bottom="0"
     units="px"
     inkscape:window-width="1680"
     inkscape:window-height="987"
     inkscape:window-x="-8"
     inkscape:window-y="-8"
     inkscape:window-maximized="1" />
  <metadata
     id="metadata3581">
    <rdf:RDF>
      <cc:Work
         rdf:about="">
        <dc:format>image/svg+xml</dc:format>
        <dc:type
           rdf:resource="http://purl.org/dc/dcmitype/StillImage" />
        <dc:title></dc:title>
      </cc:Work>
    </rdf:RDF>
  </metadata>
  <g
     inkscape:label="Layer 1"
     inkscape:groupmode="layer"
     id="layer1"
     transform="translate(98.557289,-63.372915)">
    <g
       style="display:inline;opacity:1;stroke-width:1.09602571"
       transform="matrix(0.91238287,0,0,0.91239189,-112.67952,-47.404344)"
       id="g2961">
      <g
         style="stroke-width:1.09602571"
         transform="translate(1.6078907,3.617754)"
         id="g2959">
        <path
           style="fill:#e6e6e6;stroke-width:0.2899901"
           inkscape:connector-curvature="0"
           d="m 55.67347,165.50306 0.626992,1.40586 c -0.509659,-0.0811 -0.983612,0.35413 -0.994262,0.91311 -0.01065,0.55898 0.443929,1.14053 0.95362,1.21998 -0.0974,0.43399 -0.517758,0.62532 -0.882633,0.80073 -0.364876,0.17541 -0.758135,0.46633 -0.73099,0.92875 0.0218,0.37131 0.328837,0.69912 0.654904,0.83093 0.326067,0.1318 0.668183,0.11154 0.99841,0.0894 -0.500413,0.52347 -0.54919,1.50737 -0.109719,2.21327 0.439472,0.70591 1.317129,1.0534 1.974278,0.78169 -0.464324,0.5776 -0.363447,1.63536 0.21281,2.23145 0.58091,0.6009 1.42279,0.65906 2.158772,0.59576 a 9.5612756,9.5612756 0 0 0 5.13405,-2.03462 c 0.562647,-0.44708 1.088199,-0.97289 1.409163,-1.65874 0.320963,-0.68585 0.415528,-1.55422 0.116569,-2.33471 0.08063,0.97771 1.059244,1.74994 1.939608,1.79315 0.880364,0.0432 1.649002,-0.45266 2.302186,-1.01811 0.868655,-0.75199 1.672914,-1.80608 1.553689,-3.10667 -0.05902,-0.64385 -0.340245,-1.2631 -0.616066,-1.8629 l -0.534732,-1.16284 c -0.215878,-0.46945 -0.436651,-0.94683 -0.761569,-1.34078 -0.324917,-0.39395 -0.775908,-0.69892 -1.227213,-0.69603 0.10319,-0.47143 0.206843,-0.96043 0.120369,-1.46132 -0.08647,-0.5009 -0.417609,-1.01952 -0.86795,-1.13682 -0.573137,-0.14929 -1.058871,0.37962 -1.635203,0.32976 -0.554619,-0.048 -1.012973,-0.6046 -1.551542,-0.82516 a 1.2420202,1.2420202 0 0 0 -1.340305,0.23184 c -0.341417,0.33329 -0.483734,0.89641 -0.361218,1.42923 0.107324,0.46676 0.392945,0.87843 0.566305,1.32858 0.17336,0.45014 0.200268,1.02895 -0.132685,1.2748 -0.401765,0.29666 -1.013292,-0.10702 -1.32718,-0.59541 -0.313887,-0.48838 -0.494107,-1.07973 -0.891041,-1.49046 -0.468472,-0.48476 -1.201793,-0.59837 -1.684136,-0.26091 -0.482344,0.33746 -0.666809,1.09318 -0.423641,1.73557 0.198826,0.52524 0.654282,1.0566 0.496319,1.55122 -0.166949,0.52274 -0.897477,0.45654 -1.338128,0.0871 -0.44065,-0.36944 -0.733239,-0.92591 -1.168529,-1.30365 -0.442064,-0.38362 -1.019345,-0.5517 -1.526127,-0.44436 a 1.5711982,1.5711982 0 0 0 -1.125992,1.00611"
           id="path2868" />
        <path
           style="fill:#3f3d56;stroke-width:0.2899901"
           inkscape:connector-curvature="0"
           d="m 65.824688,161.55229 -1.300927,0.60443 a 0.99867743,0.99867743 0 0 1 -0.631493,0.0851 c -0.188864,-0.0447 -0.316485,-0.16013 -0.350029,-0.31692 l -0.302705,-1.41385 c -0.05716,-0.2667 0.163734,-0.58227 0.525196,-0.75021 l 0.718446,-0.3338 c 0.361463,-0.16794 0.745088,-0.13324 0.912058,0.0825 l 0.885308,1.14315 c 0.0982,0.12676 0.104139,0.29876 0.01647,0.47191 a 0.99867092,0.99867092 0 0 1 -0.472327,0.42771 z"
           id="path2870" />
        <path
           style="fill:url(#linearGradient2963);fill-opacity:1;stroke-width:0.2899901"
           inkscape:connector-curvature="0"
           d="m 25.485327,135.42123 a 25.595355,25.595355 0 0 1 5.60365,-8.96975 c 2.097264,-2.17719 5.361331,-2.08672 5.361331,-2.08672 l 0.01864,-0.0231 a 6.3323614,6.3323614 0 0 1 6.691894,-2.09048 c 0.311214,0.0893 0.550592,0.12889 0.664429,0.0891 2.075628,-0.72644 1.978106,-2.36608 3.768908,-3.68696 3.13559,-2.31279 13.536023,0.33646 15.002576,4.59227 1.18861,3.44923 6.494324,5.12104 8.476571,7.75943 q 0.464954,0.61882 0.912326,1.25198 0.209774,0.29414 0.414841,0.59273 a 52.812588,52.812588 0 0 1 3.770426,6.37395 37.172225,37.172225 0 0 1 1.887189,4.46001 c 2.067232,6.04328 1.360305,10.54583 -4.339736,9.43346 q -1.012117,-0.19804 -1.975608,-0.35437 -1.395184,-0.22768 -2.693049,-0.37422 -1.747742,-0.19876 -3.325507,-0.26045 -0.530508,-0.0213 -1.041539,-0.0286 c -5.037418,-0.0698 -8.773964,0.87824 -11.620561,2.34999 q -0.723818,0.37329 -1.371839,0.7898 a 17.067583,17.067583 0 0 0 -1.885681,1.39685 18.430067,18.430067 0 0 0 -2.271959,2.32797 l -0.03775,0.0462 c -3.329455,4.07257 -4.425197,8.58111 -6.74119,9.37494 -9.90026,3.39395 -16.161758,-8.90924 -16.803889,-20.94446 q -0.04863,-0.9097 -0.05373,-1.81419 -0.003,-0.40429 0.004,-0.80645 c 0.01016,-0.69942 0.041,-1.39435 0.09263,-2.08087 q 0.02893,-0.39373 0.0671,-0.78329 c 0.02805,-0.28006 0.05856,-0.55845 0.09382,-0.83509 0.251853,-2.02785 0.692448,-3.9572 1.331729,-5.69966 z"
           id="path2872" />
        <path
           style="fill:#3f3d56;stroke-width:0.2899901"
           inkscape:connector-curvature="0"
           d="m 56.17121,142.0429 c -0.790656,0.3681 -0.803683,2.01691 -0.555761,2.55115 l 0.449282,0.967 2.8639,-1.3306 -0.449282,-0.96701 c -0.248406,-0.53402 -1.516904,-1.5874 -2.308139,-1.22054 z"
           id="path2874" />
        <path
           style="fill:#3f3d56;stroke-width:0.2899901"
           inkscape:connector-curvature="0"
           d="m 48.475158,155.92634 a 0.31328061,0.31328061 0 0 1 -0.294264,-0.42076 0.31088085,0.31088085 0 0 1 0.162189,-0.17645 l 14.789968,-6.8716 a 0.31307961,0.31307961 0 0 1 0.41589,0.15195 0.31348884,0.31348884 0 0 1 -0.152021,0.41589 h -3.5e-5 l -14.789972,6.87159 a 0.311353,0.311353 0 0 1 -0.131755,0.0294 z"
           id="path2876" />
        <rect
           style="fill:#e6e6e6;stroke-width:0.2899901"
           x="-11.239993"
           y="156.66119"
           width="4.6616879"
           height="15.739072"
           transform="rotate(-24.9202)"
           id="rect2878" />
        <path
           style="fill:#3f3d56;stroke-width:0.2899901"
           inkscape:connector-curvature="0"
           d="m 44.173946,126.87895 c -0.790656,0.3681 -0.803683,2.0169 -0.555761,2.55114 l 0.449282,0.96701 2.8639,-1.3306 -0.449282,-0.96701 c -0.248406,-0.53402 -1.516904,-1.58741 -2.308139,-1.22054 z"
           id="path2880" />
        <path
           style="fill:#3f3d56;stroke-width:0.2899901"
           inkscape:connector-curvature="0"
           d="m 61.889395,163.19318 -1.300926,0.60443 a 0.99866875,0.99866875 0 0 1 -0.631494,0.0851 c -0.188864,-0.0447 -0.316485,-0.16013 -0.350028,-0.31692 l -0.302707,-1.41384 c -0.05716,-0.26671 0.163734,-0.58228 0.525197,-0.75022 l 0.718445,-0.33379 c 0.361463,-0.16795 0.745089,-0.13325 0.91206,0.0824 l 0.885304,1.14315 c 0.0982,0.12676 0.104139,0.29876 0.01647,0.47191 a 0.99867092,0.99867092 0 0 1 -0.472324,0.42771 z"
           id="path2882" />
        <path
           style="fill:#3f3d56;stroke-width:0.2899901"
           inkscape:connector-curvature="0"
           d="m 57.889651,165.17761 -1.300927,0.60442 a 0.99867309,0.99867309 0 0 1 -0.631494,0.0851 c -0.188864,-0.0447 -0.316484,-0.16014 -0.350028,-0.31693 l -0.302706,-1.41384 c -0.05716,-0.2667 0.163733,-0.58227 0.525196,-0.75021 l 0.718446,-0.3338 c 0.361463,-0.16794 0.745089,-0.13324 0.912059,0.0824 l 0.885307,1.14316 c 0.0982,0.12675 0.104139,0.29876 0.01647,0.4719 a 0.99867092,0.99867092 0 0 1 -0.472326,0.42772 z"
           id="path2884" />
        <rect
           style="fill:#e6e6e6;stroke-width:0.2899901"
           x="-15.730842"
           y="140.5312"
           width="4.6616879"
           height="31.814722"
           transform="rotate(-24.9202)"
           id="rect2886" />
        <polyline
           transform="matrix(0.07230359,0,0,0.07230359,13.870514,117.79635)"
           style="fill:#3f3d56;stroke-width:4.01072931"
           points="548.951 403.691 542.39 389.254 546.167 387.512 552.708 401.903 647.423 611.909 643.65 613.662"
           id="polyline2888" />
        <polyline
           transform="matrix(0.07230359,0,0,0.07230359,13.870514,117.79635)"
           style="fill:#3f3d56;stroke-width:4.01072931"
           points="622.951 391.691 616.39 377.254 620.167 375.512 626.708 389.903 721.423 599.909 717.65 601.662"
           id="polyline2890" />
        <path
           style="fill:#e6e6e6;stroke-width:0.2899901"
           inkscape:connector-curvature="0"
           d="m 51.170505,134.42019 -5.7283,2.66144 c -0.364699,-0.56738 -1.464104,-3.47492 -1.217245,-4.33758 l -0.185294,-0.82265 3.955258,-1.83766 0.529421,0.65125 c 0.785876,0.24113 2.315776,2.9721 2.64616,3.6852 z"
           id="path2892" />
        <path
           style="fill:#e6e6e6;stroke-width:0.2899901"
           inkscape:connector-curvature="0"
           d="M 48.160205,130.11893 44.0786,132.0153 c -0.150654,0.07 -0.311095,0.0443 -0.358356,-0.0575 a 0.14114601,0.14114601 0 0 1 -0.01244,-0.0465 l -0.211246,-2.25355 c -0.009,-0.0965 0.07351,-0.20586 0.199637,-0.26446 l 2.706816,-1.25761 c 0.126128,-0.0586 0.262942,-0.0512 0.330861,0.018 l 1.586042,1.6148 c 0.08112,0.0826 0.03707,0.22396 -0.09839,0.31577 a 0.43966005,0.43966005 0 0 1 -0.06132,0.0347 z"
           id="path2894" />
        <path
           style="fill:#3f3d56;stroke-width:0.2899901"
           inkscape:connector-curvature="0"
           d="m 51.361546,147.77467 a 0.55139296,0.55139296 0 0 1 -0.131158,-0.0155 0.4051792,0.4051792 0 0 1 -0.28173,-0.21875 l -2.49539,-5.37091 c -0.103265,-0.22234 0.03538,-0.50669 0.309056,-0.63385 l 3.653944,-1.69769 c 0.273715,-0.12724 0.580405,-0.0497 0.683742,0.1726 l 2.495392,5.37094 a 0.4050852,0.4050852 0 0 1 -0.01451,0.35637 0.61503747,0.61503747 0 0 1 -0.294581,0.27749 l -3.653908,1.69762 a 0.64492633,0.64492633 0 0 1 -0.270856,0.0616 z"
           id="path2896" />
        <rect
           style="fill:#e6e6e6;stroke-width:0.2899901"
           x="-20.237202"
           y="156.60551"
           width="4.6616879"
           height="15.739072"
           transform="rotate(-24.9202)"
           id="rect2898" />
        <path
           style="fill:#3f3d56;stroke-width:0.2899901"
           inkscape:connector-curvature="0"
           d="m 46.652827,130.35437 -1.239784,0.57602 c -0.23924,0.11115 -0.562007,-0.0741 -0.719401,-0.41283 -0.157394,-0.33877 -0.09079,-0.7049 0.14845,-0.81605 l 1.239784,-0.57602 c 0.23924,-0.11115 0.562007,0.0741 0.719401,0.41283 0.157394,0.33876 0.09079,0.70489 -0.14845,0.81605 z"
           id="path2900" />
        <path
           style="fill:#3f3d56;stroke-width:0.2899901"
           inkscape:connector-curvature="0"
           d="m 48.070725,145.74508 c -0.790655,0.36811 -0.803682,2.01691 -0.555761,2.55115 l 0.449283,0.967 2.8639,-1.3306 -0.449282,-0.96701 c -0.248406,-0.53401 -1.516904,-1.5874 -2.30814,-1.22054 z"
           id="path2902" />
        <path
           style="fill:#e6e6e6;stroke-width:0.2899901"
           inkscape:connector-curvature="0"
           d="m 34.936958,142.45392 c -0.279236,0.18605 -0.565031,-0.25677 -0.280428,-0.43456 0.279221,-0.18604 0.565017,0.25678 0.280428,0.43456 z"
           id="path2904" />
        <path
           style="fill:#e6e6e6;stroke-width:0.2899901"
           inkscape:connector-curvature="0"
           d="m 64.003001,136.0912 c -0.279236,0.18605 -0.565031,-0.25677 -0.280428,-0.43456 0.279221,-0.18604 0.565017,0.25678 0.280428,0.43456 z"
           id="path2906" />
        <path
           style="fill:#e6e6e6;stroke-width:0.2899901"
           inkscape:connector-curvature="0"
           d="m 44.191818,141.15245 c -0.279237,0.18605 -0.565031,-0.25677 -0.280428,-0.43456 0.27922,-0.18604 0.565017,0.25678 0.280428,0.43456 z"
           id="path2908" />
        <path
           style="fill:#e6e6e6;stroke-width:0.2899901"
           inkscape:connector-curvature="0"
           d="m 34.936958,158.50531 c -0.279236,0.18605 -0.565031,-0.25676 -0.280428,-0.43456 0.279221,-0.18604 0.565017,0.25678 0.280428,0.43456 z"
           id="path2910" />
        <path
           style="fill:#e6e6e6;stroke-width:0.2899901"
           inkscape:connector-curvature="0"
           d="m 49.180765,122.28121 c -0.279236,0.18605 -0.56503,-0.25676 -0.280428,-0.43455 0.279221,-0.18604 0.565017,0.25677 0.280428,0.43455 z"
           id="path2912" />
        <path
           style="fill:#e6e6e6;stroke-width:0.2899901"
           inkscape:connector-curvature="0"
           d="m 35.443083,130.81304 c -0.279236,0.18605 -0.565031,-0.25677 -0.280428,-0.43456 0.279221,-0.18604 0.565017,0.25678 0.280428,0.43456 z"
           id="path2914" />
        <polygon
           transform="matrix(0.07230359,0,0,0.07230359,13.870514,117.79635)"
           style="fill:#e6e6e6;stroke-width:4.01072931"
           points="568.823,147.299 571.28,147.838 571.639,146.2 569.182,145.661 569.72,143.203 568.082,142.844 567.543,145.302 565.086,144.764 564.727,146.402 567.184,146.941 566.646,149.398 568.284,149.757 "
           id="polygon2916" />
        <polygon
           transform="matrix(0.07230359,0,0,0.07230359,13.870514,117.79635)"
           style="fill:#e6e6e6;stroke-width:4.01072931"
           points="168.726,352.078 171.183,352.616 171.542,350.978 169.085,350.439 169.623,347.982 167.985,347.623 167.446,350.08 164.988,349.542 164.629,351.18 167.087,351.719 166.549,354.177 168.187,354.535 "
           id="polygon2918" />
        <path
           style="fill:#3f3d56;stroke-width:0.2899901"
           inkscape:connector-curvature="0"
           d="m 62.706475,150.72602 a 0.61529126,0.61529126 0 0 1 -0.816318,-0.2984 l -0.731172,-1.57372 a 0.61458051,0.61458051 0 0 1 1.114721,-0.51791 l 0.731172,1.57372 a 0.61529126,0.61529126 0 0 1 -0.298403,0.81631 z"
           id="path2920" />
        <path
           style="fill:#3f3d56;stroke-width:0.2899901"
           inkscape:connector-curvature="0"
           d="m 50.270258,156.51031 a 0.61529126,0.61529126 0 0 1 -0.816318,-0.2984 l -0.731172,-1.57373 a 0.61458051,0.61458051 0 0 1 1.114721,-0.51791 l 0.731172,1.57373 a 0.61529126,0.61529126 0 0 1 -0.298403,0.81631 z"
           id="path2922" />
        <path
           style="fill:#e6e6e6;stroke-width:0.2899901"
           inkscape:connector-curvature="0"
           d="m 61.580112,147.28764 -4.902606,2.27782 c -0.312135,-0.4856 -1.253063,-2.97404 -1.041788,-3.71235 l 0.103702,-0.82593 2.927294,-1.43617 0.648664,0.54264 c 0.913914,-0.30898 2.25732,1.95567 2.264734,3.15399 z"
           id="path2924" />
        <path
           style="fill:#3f3d56;stroke-width:0.2899901"
           inkscape:connector-curvature="0"
           d="m 59.303997,147.12971 -1.239785,0.57602 c -0.239239,0.11115 -0.603267,-0.16287 -0.811365,-0.61077 -0.208097,-0.44789 -0.182755,-0.90283 0.05648,-1.01398 l 1.239784,-0.57603 c 0.23924,-0.11115 0.603267,0.16288 0.811365,0.61077 0.208098,0.4479 0.182755,0.90283 -0.05648,1.01399 z"
           id="path2926" />
        <polyline
           transform="matrix(0.07230359,0,0,0.07230359,13.870514,117.79635)"
           style="fill:#3f3d56;stroke-width:4.01072931"
           points="482.951 446.691 476.39 432.254 480.167 430.512 486.708 444.903 581.423 654.909 577.65 656.662"
           id="polyline2928" />
        <path
           style="fill:#e6e6e6;stroke-width:0.2899901"
           inkscape:connector-curvature="0"
           d="m 53.47963,150.98983 -4.90261,2.27781 c -0.723261,-0.37344 -1.828636,-2.81702 -1.041787,-3.71235 l 0.103703,-0.82593 2.927293,-1.43617 0.648665,0.54264 c 0.672597,0.20637 1.981974,2.54369 2.264736,3.154 z"
           id="path2930" />
        <path
           style="fill:#3f3d56;stroke-width:0.2899901"
           inkscape:connector-curvature="0"
           d="m 51.102611,150.61472 -1.239784,0.57602 c -0.23924,0.11116 -0.580632,-0.11415 -0.760914,-0.50218 -0.180283,-0.38803 -0.132305,-0.79424 0.106937,-0.9054 l 1.239784,-0.57602 c 0.23924,-0.11115 0.580632,0.11416 0.760914,0.50218 0.180283,0.38803 0.132303,0.79425 -0.106937,0.9054 z"
           id="path2932" />
        <circle
           style="fill:#e54f6d;fill-opacity:1;stroke-width:0.2899901"
           cx="26.255501"
           cy="132.60738"
           r="7.4472699"
           id="circle2934" />
        <path
           style="opacity:0.3;fill:#f0f0f0;stroke-width:0.2899901"
           inkscape:connector-curvature="0"
           d="m 56.790322,140.36403 4.525714,-13.21775 -4.969515,13.05952 a 0.24884076,0.24884076 0 1 0 0.443801,0.15823 z"
           id="path2937" />
        <path
           style="fill:#3f3d56;stroke-width:0.2899901"
           inkscape:connector-curvature="0"
           d="m 68.326642,132.4854 q -1.328919,0.44165 -2.946476,0.8677 c -5.577872,1.46856 -13.054396,2.61408 -21.052317,3.22566 -7.997887,0.61156 -15.561713,0.61599 -21.297999,0.0126 -2.794331,-0.29397 -5.004489,-0.71676 -6.569047,-1.25671 -1.656434,-0.57158 -2.526811,-1.26039 -2.586988,-2.04718 -0.117185,-1.53281 2.907514,-2.88192 5.465569,-3.74375 l 0.06928,0.20555 c -3.512887,1.18352 -5.401702,2.43422 -5.318538,3.52167 0.105874,1.38505 3.372554,2.51662 8.962412,3.10469 5.723682,0.60207 13.273531,0.59745 21.258802,-0.0131 7.985215,-0.61062 15.448016,-1.75389 21.013614,-3.21919 5.435316,-1.43093 8.492092,-3.0461 8.386173,-4.43116 -0.08794,-1.14997 -2.354726,-2.13371 -6.382794,-2.77013 l 0.03386,-0.21423 c 2.92685,0.46243 6.441712,1.35267 6.565244,2.96783 0.06014,0.78679 -0.695399,1.59988 -2.245672,2.41667 -0.883721,0.46558 -2.006575,0.92492 -3.355126,1.3731 z"
           id="path2939" />
        <circle
           style="fill:#e54f6d;fill-opacity:1;stroke-width:0.2899901"
           cx="70.514977"
           cy="144.92004"
           r="0.7738176"
           id="circle2941" />
        <circle
           style="fill:#f2f2f2;stroke-width:0.2899901"
           cx="75.431618"
           cy="165.88809"
           r="0.7738176"
           id="circle2943" />
        <circle
           style="fill:#f2f2f2;stroke-width:0.2899901"
           cx="49.04081"
           cy="169.86479"
           r="1.5086969"
           id="circle2945" />
        <circle
           style="fill:#3f3d56;stroke-width:0.2899901"
           cx="37.54454"
           cy="150.63203"
           r="0.7738176"
           id="circle2947" />
        <polygon
           transform="matrix(0.07230359,0,0,0.07230359,13.870514,117.79635)"
           style="fill:#e6e6e6;stroke-width:4.01072931"
           points="761.723,546.349 713.843,548.227 687.226,478.768 733.402,490.721 "
           id="polygon2949" />
        <polygon
           transform="matrix(0.07230359,0,0,0.07230359,13.870514,117.79635)"
           style="fill:#cccccc;stroke-width:4.01072931"
           points="670.606,563.557 658.722,573.824 580.645,398.574 606.059,424.002 "
           id="polygon2951" />
        <polygon
           transform="matrix(0.07230359,0,0,0.07230359,13.870514,117.79635)"
           style="fill:#cccccc;stroke-width:4.01072931"
           points="588.304,598.694 603.88,596.688 525.386,421.624 527.38,457.52 "
           id="polygon2953" />
        <polygon
           transform="matrix(0.07230359,0,0,0.07230359,13.870514,117.79635)"
           style="fill:#e6e6e6;stroke-width:4.01072931"
           points="517.187,667.008 552.9,635.061 523.723,566.637 498.854,607.339 "
           id="polygon2955" />
        <path
           style="fill:#3f3d56;stroke-width:0.2899901"
           inkscape:connector-curvature="0"
           d="m 67.621346,160.57455 q -1.400388,0 -3.069761,-0.10584 c -5.756361,-0.36554 -13.212599,-1.63643 -20.995227,-3.57846 -7.782591,-1.94203 -14.961794,-4.32332 -20.215032,-6.70503 -2.55901,-1.16025 -4.523034,-2.2585 -5.837455,-3.26432 -1.391633,-1.06482 -2.000351,-1.99298 -1.80932,-2.75859 0.372215,-1.49154 3.668033,-1.81786 6.367343,-1.82895 l 9.18e-4,0.21691 c -3.706864,0.0152 -5.893731,0.60639 -6.157773,1.66458 -0.336346,1.34774 2.406743,3.45182 7.525858,5.77281 5.241693,2.37648 12.407691,4.75318 20.177997,6.69218 7.770271,1.93892 15.212774,3.20762 20.956462,3.57239 5.609212,0.35629 9.019378,-0.2124 9.355689,-1.56018 0.279222,-1.11901 -1.561624,-2.76745 -5.183405,-4.64176 l 0.0997,-0.19262 c 2.631634,1.3619 5.686353,3.31523 5.294191,4.88691 -0.191069,0.76562 -1.164484,1.29893 -2.893239,1.58511 -0.985454,0.1631 -2.195868,0.24486 -3.616945,0.24486 z"
           id="path2957" />
      </g>
    </g>
  </g>
</svg>
